# File exported by Houdini 19.5.303 (www.sidefx.com)
# 1250 points
# 4800 vertices
# 1200 primitives
# Bounds: [-0.499999762, -0.449999928, -0.499013126] to [0.499999762, 0.449999988, 0.499013126]
g 
v 0.140000001 0.449999988 0
v 0.138896063 0.449999988 -0.0200533178
v 0.13560164 0.449999988 -0.0397903882
v 0.130168706 0.449999988 -0.0588999353
v 0.122682929 0.449999988 -0.0770806
v 0.113262385 0.449999988 -0.094045639
v 0.102055602 0.449999988 -0.109527551
v 0.089239344 0.449999988 -0.123282135
v 0.0750157461 0.449999988 -0.135092482
v 0.0596090853 0.449999988 -0.144772336
v 0.0432623774 0.449999988 -0.152169049
v 0.0262333713 0.449999988 -0.157165974
v 0.0087906532 0.449999988 -0.159684286
v -0.00879068207 0.449999988 -0.159684286
v -0.0262333993 0.449999988 -0.157165959
v -0.0432623848 0.449999988 -0.152169034
v -0.0596091114 0.449999988 -0.144772336
v -0.0750157684 0.449999988 -0.135092467
v -0.0892393887 0.449999988 -0.123282097
v -0.102055602 0.449999988 -0.109527528
v -0.113262385 0.449999988 -0.0940456316
v -0.122682944 0.449999988 -0.0770805702
v -0.130168721 0.449999988 -0.0588999055
v -0.135601655 0.449999988 -0.0397903472
v -0.138896063 0.449999988 -0.0200532749
v -0.140000001 0.449999988 1.39876448e-08
v -0.138896048 0.449999988 0.0200533401
v -0.13560164 0.449999988 0.0397904143
v -0.130168691 0.449999988 0.0588999689
v -0.122682914 0.449999988 0.0770806298
v -0.113262378 0.449999988 0.0940456614
v -0.102055594 0.449999988 0.109527566
v -0.0892393366 0.449999988 0.123282135
v -0.0750157163 0.449999988 0.135092482
v -0.059609063 0.449999988 0.144772351
v -0.043262329 0.449999988 0.152169064
v -0.0262333266 0.449999988 0.157165989
v -0.0087906085 0.449999988 0.159684286
v 0.00879067834 0.449999988 0.159684286
v 0.0262333974 0.449999988 0.157165959
v 0.0432623997 0.449999988 0.152169034
v 0.0596091263 0.449999988 0.144772336
v 0.0750157759 0.449999988 0.135092452
v 0.0892393887 0.449999988 0.12328209
v 0.102055646 0.449999988 0.109527491
v 0.113262415 0.449999988 0.0940455943
v 0.122682966 0.449999988 0.0770805329
v 0.130168736 0.449999988 0.0588998571
v 0.135601655 0.449999988 0.0397902988
v 0.138896063 0.449999988 0.0200532991
v 0.148750007 0.412499994 0
v 0.147577062 0.412499994 -0.0213066507
v 0.14407675 0.412499994 -0.0422772877
v 0.138304248 0.412499994 -0.0625811815
v 0.130350605 0.412499994 -0.0818981379
v 0.120341279 0.412499994 -0.0999234915
v 0.108434074 0.412499994 -0.116373025
v 0.0948168039 0.412499994 -0.130987272
v 0.0797042251 0.412499994 -0.143535763
v 0.0633346513 0.412499994 -0.153820619
v 0.045966275 0.412499994 -0.161679611
v 0.0278729573 0.412499994 -0.166988835
v 0.00934006926 0.412499994 -0.169664547
v -0.00934009999 0.412499994 -0.169664547
v -0.027872989 0.412499994 -0.166988835
v -0.0459662862 0.412499994 -0.161679611
v -0.0633346811 0.412499994 -0.153820604
v -0.0797042549 0.412499994 -0.143535748
v -0.0948168486 0.412499994 -0.130987242
v -0.108434089 0.412499994 -0.116373003
v -0.120341286 0.412499994 -0.099923484
v -0.13035062 0.412499994 -0.0818981081
v -0.138304263 0.412499994 -0.0625811517
v -0.144076765 0.412499994 -0.042277243
v -0.147577062 0.412499994 -0.021306606
v -0.148750007 0.412499994 1.48618726e-08
v -0.147577062 0.412499994 0.0213066731
v -0.144076735 0.412499994 0.0422773138
v -0.138304248 0.412499994 0.0625812188
v -0.130350605 0.412499994 0.0818981752
v -0.120341279 0.412499994 0.0999235138
v -0.108434066 0.412499994 0.11637304
v -0.0948167965 0.412499994 0.130987272
v -0.0797042027 0.412499994 0.143535778
v -0.0633346289 0.412499994 0.153820619
v -0.0459662303 0.412499994 0.161679626
v -0.0278729107 0.412499994 0.16698885
v -0.00934002176 0.412499994 0.169664547
v 0.00934009627 0.412499994 0.169664547
v 0.0278729834 0.412499994 0.166988835
v 0.0459662974 0.412499994 0.161679611
v 0.063334696 0.412499994 0.153820604
v 0.0797042623 0.412499994 0.143535733
v 0.0948168561 0.412499994 0.130987227
v 0.108434118 0.412499994 0.116372965
v 0.120341316 0.412499994 0.0999234468
v 0.130350649 0.412499994 0.0818980634
v 0.138304278 0.412499994 0.0625810996
v 0.144076765 0.412499994 0.0422771908
v 0.147577062 0.412499994 0.0213066321
v 0.160436332 0.375 0
v 0.159171253 0.375 -0.0228053294
v 0.15539594 0.375 -0.0452510118
v 0.149169937 0.375 -0.0669830516
v 0.140591428 0.375 -0.0876587331
v 0.12979573 0.375 -0.106951967
v 0.116953045 0.375 -0.124558546
v 0.102265954 0.375 -0.140200734
v 0.0859660804 0.375 -0.153631851
v 0.0683104545 0.375 -0.164640144
v 0.0495775491 0.375 -0.173051924
v 0.0300627556 0.375 -0.178734601
v 0.0100738583 0.375 -0.181598514
v -0.0100738918 0.375 -0.181598514
v -0.030062791 0.375 -0.178734586
v -0.0495775603 0.375 -0.173051924
v -0.0683104843 0.375 -0.164640129
v -0.0859661102 0.375 -0.153631836
v -0.102265999 0.375 -0.140200689
v -0.116953053 0.375 -0.124558516
v -0.12979573 0.375 -0.106951959
v -0.140591443 0.375 -0.0876587033
v -0.149169937 0.375 -0.0669830218
v -0.155395955 0.375 -0.0452509634
v -0.159171253 0.375 -0.022805281
v -0.160436332 0.375 1.59072346e-08
v -0.159171239 0.375 0.0228053555
v -0.155395925 0.375 0.0452510417
v -0.149169922 0.375 0.0669830889
v -0.140591413 0.375 0.0876587704
v -0.129795715 0.375 0.106951989
v -0.116953038 0.375 0.124558553
v -0.102265947 0.375 0.140200734
v -0.0859660506 0.375 0.153631881
v -0.0683104247 0.375 0.164640144
v -0.0495775007 0.375 0.173051938
v -0.0300627053 0.375 0.178734615
v -0.0100738071 0.375 0.181598514
v 0.0100738872 0.375 0.181598514
v 0.0300627854 0.375 0.178734586
v 0.0495775752 0.375 0.173051924
v 0.0683104992 0.375 0.164640129
v 0.0859661177 0.375 0.153631836
v 0.102266006 0.375 0.140200675
v 0.116953097 0.375 0.124558471
v 0.12979576 0.375 0.106951922
v 0.140591472 0.375 0.0876586586
v 0.149169967 0.375 0.0669829622
v 0.155395955 0.375 0.0452509113
v 0.159171253 0.375 0.0228053089
v 0.172448933 0.337500006 0
v 0.171089128 0.337500006 -0.0243312716
v 0.167031139 0.337500006 -0.0482788272
v 0.160338968 0.337500006 -0.0714649931
v 0.151118144 0.337500006 -0.0935241133
v 0.139514118 0.337500006 -0.114108294
v 0.125709847 0.337500006 -0.132892951
v 0.10992308 0.337500006 -0.149581775
v 0.0924027488 0.337500006 -0.163911596
v 0.0734251663 0.337500006 -0.175656468
v 0.0532896481 0.337500006 -0.184631109
v 0.0323136933 0.337500006 -0.190694004
v 0.0108281346 0.337500006 -0.193749547
v -0.01082817 0.337500006 -0.193749547
v -0.0323137306 0.337500006 -0.190694004
v -0.0532896593 0.337500006 -0.184631094
v -0.0734251961 0.337500006 -0.175656453
v -0.0924027786 0.337500006 -0.163911596
v -0.109923117 0.337500006 -0.14958173
v -0.125709862 0.337500006 -0.132892922
v -0.139514133 0.337500006 -0.114108294
v -0.151118159 0.337500006 -0.0935240835
v -0.160338983 0.337500006 -0.0714649558
v -0.167031139 0.337500006 -0.0482787788
v -0.171089128 0.337500006 -0.0243312195
v -0.172448933 0.337500006 1.69716134e-08
v -0.171089128 0.337500006 0.0243312977
v -0.167031124 0.337500006 0.048278857
v -0.160338953 0.337500006 0.0714650378
v -0.151118129 0.337500006 0.093524158
v -0.139514104 0.337500006 0.114108317
v -0.125709832 0.337500006 0.132892966
v -0.109923065 0.337500006 0.14958179
v -0.0924027264 0.337500006 0.163911626
v -0.0734251365 0.337500006 0.175656483
v -0.0532895923 0.337500006 0.184631124
v -0.0323136412 0.337500006 0.190694019
v -0.0108280787 0.337500006 0.193749547
v 0.0108281644 0.337500006 0.193749547
v 0.0323137231 0.337500006 0.190694004
v 0.0532896742 0.337500006 0.184631094
v 0.073425211 0.337500006 0.175656453
v 0.0924027935 0.337500006 0.163911581
v 0.109923124 0.337500006 0.149581715
v 0.125709906 0.337500006 0.132892877
v 0.139514163 0.337500006 0.114108242
v 0.151118189 0.337500006 0.0935240313
v 0.160338998 0.337500006 0.0714649037
v 0.167031154 0.337500006 0.0482787192
v 0.171089128 0.337500006 0.0243312474
v 0.18478778 0.300000042 0
v 0.18333067 0.300000042 -0.02588447
v 0.178982332 0.300000042 -0.0513607301
v 0.171811327 0.300000042 -0.0760269985
v 0.161930755 0.300000042 -0.0994942784
v 0.149496451 0.300000042 -0.121392459
v 0.134704486 0.300000042 -0.141376242
v 0.117788151 0.300000042 -0.159130409
v 0.0990142375 0.300000042 -0.174374983
v 0.0786787942 0.300000042 -0.186869591
v 0.057102561 0.300000042 -0.196417138
v 0.0346257612 0.300000042 -0.202867076
v 0.0116028944 0.300000042 -0.20611766
v -0.0116029335 0.300000042 -0.20611766
v -0.0346257985 0.300000042 -0.202867061
v -0.0571025722 0.300000042 -0.196417123
v -0.078678824 0.300000042 -0.186869577
v -0.0990142673 0.300000042 -0.174374968
v -0.117788196 0.300000042 -0.159130365
v -0.1347045 0.300000042 -0.141376212
v -0.149496466 0.300000042 -0.121392451
v -0.16193077 0.300000042 -0.0994942486
v -0.171811342 0.300000042 -0.0760269612
v -0.178982347 0.300000042 -0.0513606817
v -0.18333067 0.300000042 -0.0258844141
v -0.18478778 0.300000042 1.80550064e-08
v -0.18333067 0.300000042 0.0258844979
v -0.178982317 0.300000042 0.0513607636
v -0.171811312 0.300000042 0.0760270432
v -0.16193074 0.300000042 0.0994943231
v -0.149496451 0.300000042 0.121392488
v -0.134704471 0.300000042 0.141376257
v -0.117788129 0.300000042 0.159130424
v -0.0990142003 0.300000042 0.174375013
v -0.078678757 0.300000042 0.186869606
v -0.0571025014 0.300000042 0.196417153
v -0.0346257016 0.300000042 0.202867076
v -0.0116028357 0.300000042 0.20611766
v 0.0116029279 0.300000042 0.20611766
v 0.0346257947 0.300000042 0.202867061
v 0.0571025871 0.300000042 0.196417123
v 0.0786788389 0.300000042 0.186869577
v 0.0990142748 0.300000042 0.174374968
v 0.117788211 0.300000042 0.15913035
v 0.13470453 0.300000042 0.141376168
v 0.149496496 0.300000042 0.121392399
v 0.161930799 0.300000042 0.099494189
v 0.171811372 0.300000042 0.0760269016
v 0.178982362 0.300000042 0.0513606146
v 0.18333067 0.300000042 0.0258844458
v 0.197452888 0.262500048 0
v 0.19589591 0.262500048 -0.02746493
v 0.191249534 0.262500048 -0.0544967279
v 0.183587044 0.262500048 -0.0806690753
v 0.173029274 0.262500048 -0.105569221
v 0.159742743 0.262500048 -0.128804475
v 0.143936947 0.262500048 -0.150008425
v 0.125861183 0.262500048 -0.168846637
v 0.105800539 0.262500048 -0.185022011
v 0.0840713307 0.262500048 -0.198279515
v 0.0610162914 0.262500048 -0.20841001
v 0.0369989611 0.262500048 -0.215253785
v 0.0123981414 0.262500048 -0.218702838
v -0.0123981824 0.262500048 -0.218702838
v -0.0369990021 0.262500048 -0.215253755
v -0.0610163026 0.262500048 -0.20841001
v -0.084071368 0.262500048 -0.1982795
v -0.105800577 0.262500048 -0.185022011
v -0.125861242 0.262500048 -0.168846592
v -0.143936962 0.262500048 -0.150008395
v -0.159742758 0.262500048 -0.128804445
v -0.173029289 0.262500048 -0.105569184
v -0.183587059 0.262500048 -0.080669038
v -0.191249549 0.262500048 -0.054496672
v -0.19589591 0.262500048 -0.0274648704
v -0.197452888 0.262500048 1.91574134e-08
v -0.19589591 0.262500048 0.0274649616
v -0.191249534 0.262500048 0.0544967614
v -0.18358703 0.262500048 0.08066912
v -0.173029244 0.262500048 0.105569273
v -0.159742728 0.262500048 0.128804505
v -0.143936932 0.262500048 0.15000844
v -0.125861168 0.262500048 0.168846652
v -0.105800495 0.262500048 0.185022041
v -0.0840712935 0.262500048 0.19827953
v -0.0610162243 0.262500048 0.208410025
v -0.0369989015 0.262500048 0.215253785
v -0.012398079 0.262500048 0.218702838
v 0.0123981768 0.262500048 0.218702838
v 0.0369989984 0.262500048 0.215253755
v 0.0610163212 0.262500048 0.20841001
v 0.0840713829 0.262500048 0.1982795
v 0.105800584 0.262500048 0.185021996
v 0.125861257 0.262500048 0.168846577
v 0.143937007 0.262500048 0.150008351
v 0.159742787 0.262500048 0.128804401
v 0.173029318 0.262500048 0.105569139
v 0.183587074 0.262500048 0.0806689709
v 0.191249549 0.262500048 0.0544966049
v 0.19589591 0.262500048 0.0274649058
v 0.210444242 0.225000054 0
v 0.208784834 0.225000054 -0.0290726516
v 0.203832746 0.225000054 -0.0576868169
v 0.195666119 0.225000054 -0.085391216
v 0.184413686 0.225000054 -0.111748956
v 0.170252979 0.225000054 -0.136344329
v 0.153407246 0.225000054 -0.158789515
v 0.134142205 0.225000054 -0.178730443
v 0.112761654 0.225000054 -0.195852697
v 0.0896027833 0.225000054 -0.209886268
v 0.065030843 0.225000054 -0.220609769
v 0.0394333005 0.225000054 -0.227854148
v 0.0132138738 0.225000054 -0.231505111
v -0.0132139176 0.225000054 -0.231505111
v -0.0394333452 0.225000054 -0.227854133
v -0.0650308579 0.225000054 -0.220609739
v -0.0896028206 0.225000054 -0.209886223
v -0.112761699 0.225000054 -0.195852682
v -0.13414225 0.225000054 -0.178730398
v -0.153407246 0.225000054 -0.158789471
v -0.170252979 0.225000054 -0.136344314
v -0.184413701 0.225000054 -0.111748919
v -0.195666119 0.225000054 -0.0853911713
v -0.203832775 0.225000054 -0.057686761
v -0.208784834 0.225000054 -0.0290725883
v -0.210444242 0.225000054 2.02788346e-08
v -0.208784819 0.225000054 0.0290726814
v -0.203832746 0.225000054 0.0576868542
v -0.19566609 0.225000054 0.0853912681
v -0.184413671 0.225000054 0.111749008
v -0.170252964 0.225000054 0.136344358
v -0.153407231 0.225000054 0.158789515
v -0.134142175 0.225000054 0.178730458
v -0.112761617 0.225000054 0.195852727
v -0.0896027461 0.225000054 0.209886283
v -0.065030776 0.225000054 0.220609769
v -0.0394332334 0.225000054 0.227854148
v -0.0132138068 0.225000054 0.231505111
v 0.013213912 0.225000054 0.231505111
v 0.0394333377 0.225000054 0.227854133
v 0.0650308728 0.225000054 0.220609739
v 0.0896028355 0.225000054 0.209886223
v 0.112761706 0.225000054 0.195852667
v 0.134142265 0.225000054 0.178730384
v 0.153407305 0.225000054 0.158789426
v 0.170253024 0.225000054 0.136344269
v 0.184413746 0.225000054 0.111748852
v 0.195666134 0.225000054 0.0853911042
v 0.203832775 0.225000054 0.0576866865
v 0.208784834 0.225000054 0.0290726218
v 0.223761871 0.187500045 0
v 0.221997455 0.187500045 -0.0307076313
v 0.21673198 0.187500045 -0.0609309971
v 0.208048522 0.187500045 -0.0901934355
v 0.196084023 0.187500045 -0.118033469
v 0.181027159 0.187500045 -0.144012034
v 0.163115367 0.187500045 -0.167719483
v 0.142631173 0.187500045 -0.188781843
v 0.119897597 0.187500045 -0.206867024
v 0.095273152 0.187500045 -0.221689805
v 0.0691462159 0.187500045 -0.233016357
v 0.0419287719 0.187500045 -0.240668148
v 0.0140500925 0.187500045 -0.244524434
v -0.0140501391 0.187500045 -0.244524434
v -0.0419288166 0.187500045 -0.240668148
v -0.0691462308 0.187500045 -0.233016357
v -0.0952731892 0.187500045 -0.221689776
v -0.119897634 0.187500045 -0.206867009
v -0.142631218 0.187500045 -0.188781813
v -0.163115382 0.187500045 -0.167719439
v -0.181027174 0.187500045 -0.144012019
v -0.196084023 0.187500045 -0.118033431
v -0.208048552 0.187500045 -0.0901933908
v -0.21673201 0.187500045 -0.0609309338
v -0.221997455 0.187500045 -0.0307075679
v -0.223761871 0.187500045 2.14192717e-08
v -0.22199744 0.187500045 0.0307076667
v -0.216731951 0.187500045 0.0609310344
v -0.208048508 0.187500045 0.0901934803
v -0.196083993 0.187500045 0.118033521
v -0.181027144 0.187500045 0.144012064
v -0.163115367 0.187500045 0.167719483
v -0.142631143 0.187500045 0.188781872
v -0.119897552 0.187500045 0.206867039
v -0.0952731073 0.187500045 0.221689805
v -0.0691461414 0.187500045 0.233016387
v -0.0419287011 0.187500045 0.240668178
v -0.0140500218 0.187500045 0.244524434
v 0.0140501326 0.187500045 0.244524434
v 0.0419288129 0.187500045 0.240668148
v 0.0691462532 0.187500045 0.233016357
v 0.0952732041 0.187500045 0.221689776
v 0.119897641 0.187500045 0.20686698
v 0.142631233 0.187500045 0.188781798
v 0.163115427 0.187500045 0.167719394
v 0.181027219 0.187500045 0.144011959
v 0.196084067 0.187500045 0.118033372
v 0.208048567 0.187500045 0.0901933089
v 0.21673201 0.187500045 0.0609308556
v 0.221997455 0.187500045 0.0307076033
v 0.237405762 0.150000036 0
v 0.235533729 0.150000036 -0.0323698781
v 0.229947239 0.150000036 -0.0642292649
v 0.220734298 0.150000036 -0.0950757191
v 0.208040252 0.150000036 -0.124422774
v 0.192065299 0.150000036 -0.151807576
v 0.173061341 0.150000036 -0.176798344
v 0.151328117 0.150000036 -0.19900085
v 0.127208352 0.150000036 -0.218064994
v 0.101082437 0.150000036 -0.233690158
v 0.0733624101 0.150000036 -0.245629832
v 0.0444853827 0.150000036 -0.253695816
v 0.0149067985 0.150000036 -0.257760853
v -0.0149068469 0.150000036 -0.257760853
v -0.0444854312 0.150000036 -0.253695786
v -0.073362425 0.150000036 -0.245629817
v -0.101082481 0.150000036 -0.233690098
v -0.127208397 0.150000036 -0.218064964
v -0.151328176 0.150000036 -0.199000806
v -0.173061356 0.150000036 -0.176798314
v -0.192065313 0.150000036 -0.151807576
v -0.208040267 0.150000036 -0.124422729
v -0.220734328 0.150000036 -0.0950756669
v -0.229947224 0.150000036 -0.0642292053
v -0.235533729 0.150000036 -0.0323698074
v -0.237405762 0.150000036 2.25787229e-08
v -0.235533759 0.150000036 0.0323699079
v -0.229947194 0.150000036 0.0642293021
v -0.220734283 0.150000036 0.0950757638
v -0.208040223 0.150000036 0.124422818
v -0.192065299 0.150000036 0.151807621
v -0.173061326 0.150000036 0.176798344
v -0.151328072 0.150000036 0.199000865
v -0.127208322 0.150000036 0.218065023
v -0.101082392 0.150000036 0.233690158
v -0.0733623356 0.150000036 0.245629862
v -0.044485312 0.150000036 0.253695846
v -0.0149067221 0.150000036 0.257760853
v 0.0149068413 0.150000036 0.257760853
v 0.04448542 0.150000036 0.253695786
v 0.0733624473 0.150000036 0.245629817
v 0.101082496 0.150000036 0.233690098
v 0.127208412 0.150000036 0.218064964
v 0.151328176 0.150000036 0.199000776
v 0.173061416 0.150000036 0.176798254
v 0.192065358 0.150000036 0.151807502
v 0.208040327 0.150000036 0.124422655
v 0.220734343 0.150000036 0.0950755924
v 0.229947254 0.150000036 0.0642291158
v 0.235533729 0.150000036 0.0323698446
v 0.251375914 0.112500034 0
v 0.249393746 0.112500034 -0.0340593792
v 0.243478477 0.112500034 -0.0675816312
v 0.233723402 0.112500034 -0.100038067
v 0.220282376 0.112500034 -0.130916849
v 0.203367397 0.112500034 -0.159730986
v 0.183245137 0.112500034 -0.186026096
v 0.160233021 0.112500034 -0.209387437
v 0.134693936 0.112500034 -0.22944659
v 0.10703063 0.112500034 -0.245887294
v 0.0776794255 0.112500034 -0.25845018
v 0.0471031256 0.112500034 -0.266937137
v 0.0157839879 0.112500034 -0.271214336
v -0.0157840401 0.112500034 -0.271214336
v -0.0471031778 0.112500034 -0.266937107
v -0.0776794329 0.112500034 -0.25845015
v -0.107030675 0.112500034 -0.245887265
v -0.13469398 0.112500034 -0.22944659
v -0.16023308 0.112500034 -0.209387392
v -0.183245152 0.112500034 -0.186026067
v -0.203367397 0.112500034 -0.159730956
v -0.220282391 0.112500034 -0.130916804
v -0.233723432 0.112500034 -0.100038014
v -0.243478477 0.112500034 -0.0675815642
v -0.249393746 0.112500034 -0.0340593047
v -0.251375914 0.112500034 2.37571918e-08
v -0.249393716 0.112500034 0.0340594165
v -0.243478462 0.112500034 0.0675816759
v -0.233723387 0.112500034 0.100038126
v -0.220282346 0.112500034 0.130916908
v -0.203367367 0.112500034 0.159731016
v -0.183245122 0.112500034 0.186026111
v -0.160232991 0.112500034 0.209387451
v -0.134693891 0.112500034 0.22944665
v -0.107030585 0.112500034 0.245887309
v -0.0776793435 0.112500034 0.25845018
v -0.0471030474 0.112500034 0.266937137
v -0.0157839078 0.112500034 0.271214336
v 0.0157840326 0.112500034 0.271214336
v 0.0471031703 0.112500034 0.266937107
v 0.0776794627 0.112500034 0.25845015
v 0.107030705 0.112500034 0.245887265
v 0.134693995 0.112500034 0.229446575
v 0.160233095 0.112500034 0.209387377
v 0.183245212 0.112500034 0.186026007
v 0.203367442 0.112500034 0.159730896
v 0.220282435 0.112500034 0.130916744
v 0.233723447 0.112500034 0.10003794
v 0.243478507 0.112500034 0.0675814822
v 0.249393746 0.112500034 0.0340593494
v 0.265672296 0.0750000328 0
v 0.263577431 0.0750000328 -0.035776142
v 0.257325739 0.0750000328 -0.0709880814
v 0.247015864 0.0750000328 -0.105080493
v 0.232810423 0.0750000328 -0.137515709
v 0.214933425 0.0750000328 -0.167782217
v 0.193666756 0.0750000328 -0.195402756
v 0.1693459 0.0750000328 -0.219941601
v 0.142354339 0.0750000328 -0.241011873
v 0.11311774 0.0750000328 -0.258281261
v 0.0820972547 0.0750000328 -0.271477342
v 0.0497820042 0.0750000328 -0.28039214
v 0.0166816656 0.0750000328 -0.2848849
v -0.0166817214 0.0750000328 -0.2848849
v -0.0497820564 0.0750000328 -0.28039211
v -0.0820972696 0.0750000328 -0.271477342
v -0.113117784 0.0750000328 -0.258281231
v -0.142354384 0.0750000328 -0.241011843
v -0.16934596 0.0750000328 -0.219941556
v -0.193666786 0.0750000328 -0.195402712
v -0.214933425 0.0750000328 -0.167782217
v -0.232810423 0.0750000328 -0.137515679
v -0.247015879 0.0750000328 -0.105080441
v -0.257325739 0.0750000328 -0.0709880069
v -0.263577431 0.0750000328 -0.0357760638
v -0.265672296 0.0750000328 2.49546712e-08
v -0.263577402 0.0750000328 0.035776183
v -0.257325709 0.0750000328 0.0709881261
v -0.247015834 0.0750000328 0.105080552
v -0.232810363 0.0750000328 0.137515783
v -0.21493341 0.0750000328 0.167782262
v -0.193666741 0.0750000328 0.195402771
v -0.169345856 0.0750000328 0.219941631
v -0.14235428 0.0750000328 0.241011903
v -0.113117687 0.0750000328 0.258281261
v -0.0820971653 0.0750000328 0.271477371
v -0.0497819185 0.0750000328 0.28039214
v -0.0166815799 0.0750000328 0.2848849
v 0.0166817121 0.0750000328 0.2848849
v 0.0497820489 0.0750000328 0.28039211
v 0.0820972919 0.0750000328 0.271477342
v 0.113117814 0.0750000328 0.258281231
v 0.142354399 0.0750000328 0.241011828
v 0.16934596 0.0750000328 0.219941556
v 0.193666846 0.0750000328 0.195402652
v 0.21493347 0.0750000328 0.167782143
v 0.232810467 0.0750000328 0.13751559
v 0.247015908 0.0750000328 0.105080351
v 0.257325768 0.0750000328 0.0709879249
v 0.263577431 0.0750000328 0.0357761085
v 0.280294985 0.0375000387 0
v 0.278084755 0.0375000387 -0.0375201665
v 0.271488994 0.0375000387 -0.0744486302
v 0.260611683 0.0375000387 -0.110202983
v 0.245624349 0.0375000387 -0.144219369
v 0.226763412 0.0375000387 -0.175961316
v 0.204326227 0.0375000387 -0.204928294
v 0.178666726 0.0375000387 -0.230663389
v 0.150189534 0.0375000387 -0.252760768
v 0.119343758 0.0375000387 -0.270871997
v 0.0866159052 0.0375000387 -0.284711391
v 0.0525220148 0.0375000387 -0.294060737
v 0.0175998267 0.0375000387 -0.298772544
v -0.0175998863 0.0375000387 -0.298772544
v -0.0525220744 0.0375000387 -0.294060737
v -0.0866159201 0.0375000387 -0.284711391
v -0.11934381 0.0375000387 -0.270871967
v -0.150189593 0.0375000387 -0.252760768
v -0.178666785 0.0375000387 -0.230663344
v -0.204326227 0.0375000387 -0.204928249
v -0.226763412 0.0375000387 -0.175961301
v -0.245624363 0.0375000387 -0.144219324
v -0.260611683 0.0375000387 -0.110202931
v -0.271488994 0.0375000387 -0.0744485557
v -0.278084755 0.0375000387 -0.0375200883
v -0.280294985 0.0375000387 2.61711701e-08
v -0.278084755 0.0375000387 0.0375202075
v -0.271488994 0.0375000387 0.0744486749
v -0.260611624 0.0375000387 0.110203043
v -0.245624319 0.0375000387 0.144219428
v -0.226763383 0.0375000387 0.175961345
v -0.204326212 0.0375000387 0.204928309
v -0.178666681 0.0375000387 0.230663389
v -0.150189489 0.0375000387 0.252760828
v -0.119343713 0.0375000387 0.270872027
v -0.0866158158 0.0375000387 0.284711421
v -0.0525219254 0.0375000387 0.294060767
v -0.0175997373 0.0375000387 0.298772544
v 0.017599877 0.0375000387 0.298772544
v 0.0525220633 0.0375000387 0.294060737
v 0.0866159424 0.0375000387 0.284711391
v 0.119343847 0.0375000387 0.270871967
v 0.150189608 0.0375000387 0.252760738
v 0.178666815 0.0375000387 0.230663314
v 0.204326302 0.0375000387 0.20492819
v 0.226763457 0.0375000387 0.175961226
v 0.245624423 0.0375000387 0.144219249
v 0.260611743 0.0375000387 0.110202834
v 0.271489024 0.0375000387 0.0744484589
v 0.278084755 0.0375000387 0.037520133
v 0.295243889 3.65078456e-08 0
v 0.292915821 3.65078456e-08 -0.0392914526
v 0.285968244 3.65078456e-08 -0.0779632628
v 0.274510831 3.65078456e-08 -0.115405545
v 0.258724183 3.65078456e-08 -0.151027799
v 0.238857344 3.65078456e-08 -0.184268266
v 0.215223521 3.65078456e-08 -0.214602724
v 0.188195527 3.65078456e-08 -0.24155274
v 0.158199579 3.65078456e-08 -0.26469335
v 0.125708714 3.65078456e-08 -0.283659607
v 0.0912353769 3.65078456e-08 -0.298152357
v 0.0553231575 3.65078456e-08 -0.307943016
v 0.0185384769 3.65078456e-08 -0.312877268
v -0.0185385384 3.65078456e-08 -0.312877268
v -0.0553232208 3.65078456e-08 -0.307942986
v -0.0912353843 3.65078456e-08 -0.298152298
v -0.125708759 3.65078456e-08 -0.283659577
v -0.158199623 3.65078456e-08 -0.26469332
v -0.188195586 3.65078456e-08 -0.241552696
v -0.215223521 3.65078456e-08 -0.214602694
v -0.238857344 3.65078456e-08 -0.184268251
v -0.258724213 3.65078456e-08 -0.151027769
v -0.274510831 3.65078456e-08 -0.115405485
v -0.285968274 3.65078456e-08 -0.0779631883
v -0.292915821 3.65078456e-08 -0.0392913707
v -0.295243889 3.65078456e-08 2.74066814e-08
v -0.292915791 3.65078456e-08 0.0392914973
v -0.285968244 3.65078456e-08 0.0779633075
v -0.274510771 3.65078456e-08 0.115405604
v -0.258724153 3.65078456e-08 0.151027873
v -0.238857314 3.65078456e-08 0.184268296
v -0.215223491 3.65078456e-08 0.214602739
v -0.188195482 3.65078456e-08 0.24155277
v -0.158199519 3.65078456e-08 0.264693379
v -0.125708655 3.65078456e-08 0.283659637
v -0.0912352726 3.65078456e-08 0.298152328
v -0.0553230718 3.65078456e-08 0.307943046
v -0.01853838 3.65078456e-08 0.312877268
v 0.0185385291 3.65078456e-08 0.312877268
v 0.0553232171 3.65078456e-08 0.307942986
v 0.0912354216 3.65078456e-08 0.298152328
v 0.125708789 3.65078456e-08 0.283659577
v 0.158199653 3.65078456e-08 0.26469329
v 0.188195616 3.65078456e-08 0.241552666
v 0.215223595 3.65078456e-08 0.214602619
v 0.238857388 3.65078456e-08 0.184268162
v 0.258724242 3.65078456e-08 0.151027679
v 0.27451089 3.65078456e-08 0.115405388
v 0.285968304 3.65078456e-08 0.0779630989
v 0.292915821 3.65078456e-08 0.0392914154
v 0.310519069 -0.0374999642 0
v 0.30807054 -0.0374999642 -0.0410900004
v 0.300763547 -0.0374999642 -0.0815320015
v 0.288713336 -0.0374999642 -0.12068817
v 0.272109926 -0.0374999642 -0.157941028
v 0.251215219 -0.0374999642 -0.192703053
v 0.226358637 -0.0374999642 -0.224426076
v 0.197932288 -0.0374999642 -0.25260973
v 0.166384429 -0.0374999642 -0.276809543
v 0.132212564 -0.0374999642 -0.296643972
v 0.0959556624 -0.0374999642 -0.311800092
v 0.058185447 -0.0374999642 -0.322038978
v 0.0194976088 -0.0374999642 -0.327199101
v -0.019497674 -0.0374999642 -0.327199101
v -0.0581855103 -0.0374999642 -0.322038949
v -0.0959556848 -0.0374999642 -0.311800092
v -0.132212609 -0.0374999642 -0.296643913
v -0.166384473 -0.0374999642 -0.276809514
v -0.197932363 -0.0374999642 -0.25260964
v -0.226358667 -0.0374999642 -0.224426031
v -0.251215219 -0.0374999642 -0.192703024
v -0.272109926 -0.0374999642 -0.157940999
v -0.288713366 -0.0374999642 -0.120688118
v -0.300763577 -0.0374999642 -0.0815319195
v -0.30807054 -0.0374999642 -0.0410899147
v -0.310519069 -0.0374999642 2.86612085e-08
v -0.308070511 -0.0374999642 0.0410900451
v -0.300763518 -0.0374999642 0.0815320536
v -0.288713276 -0.0374999642 0.120688237
v -0.272109866 -0.0374999642 0.157941103
v -0.25121519 -0.0374999642 0.192703098
v -0.226358607 -0.0374999642 0.224426091
v -0.197932243 -0.0374999642 0.25260973
v -0.166384354 -0.0374999642 0.276809603
v -0.132212505 -0.0374999642 0.296643972
v -0.0959555656 -0.0374999642 0.311800122
v -0.0581853427 -0.0374999642 0.322039008
v -0.01949751 -0.0374999642 0.327199101
v 0.0194976646 -0.0374999642 0.327199101
v 0.0581854954 -0.0374999642 0.322038949
v 0.0959557071 -0.0374999642 0.311800092
v 0.132212639 -0.0374999642 0.296643913
v 0.166384488 -0.0374999642 0.276809514
v 0.197932377 -0.0374999642 0.25260964
v 0.226358742 -0.0374999642 0.224425957
v 0.251215279 -0.0374999642 0.192702964
v 0.272110015 -0.0374999642 0.157940894
v 0.288713396 -0.0374999642 0.120688029
v 0.300763577 -0.0374999642 0.0815318152
v 0.30807054 -0.0374999642 0.0410899632
v 0.326120496 -0.0749999657 0
v 0.323548943 -0.0749999657 -0.0429158062
v 0.315874845 -0.0749999657 -0.0851548165
v 0.303219169 -0.0749999657 -0.126050875
v 0.285781562 -0.0749999657 -0.164959043
v 0.263837039 -0.0749999657 -0.201265678
v 0.237731591 -0.0749999657 -0.234398291
v 0.20787701 -0.0749999657 -0.263834268
v 0.174744084 -0.0749999657 -0.289109409
v 0.138855323 -0.0749999657 -0.309825152
v 0.100776777 -0.0749999657 -0.325654745
v 0.0611088611 -0.0749999657 -0.336348593
v 0.0204772297 -0.0749999657 -0.341737986
v -0.0204772986 -0.0749999657 -0.341737986
v -0.0611089244 -0.0749999657 -0.336348563
v -0.100776792 -0.0749999657 -0.325654715
v -0.138855383 -0.0749999657 -0.309825122
v -0.174744144 -0.0749999657 -0.289109379
v -0.207877085 -0.0749999657 -0.263834208
v -0.237731606 -0.0749999657 -0.234398261
v -0.263837039 -0.0749999657 -0.201265663
v -0.285781592 -0.0749999657 -0.164958984
v -0.303219199 -0.0749999657 -0.126050815
v -0.315874845 -0.0749999657 -0.0851547346
v -0.323548943 -0.0749999657 -0.0429157168
v -0.326120496 -0.0749999657 2.99347533e-08
v -0.323548943 -0.0749999657 0.0429158546
v -0.315874815 -0.0749999657 0.0851548761
v -0.30321914 -0.0749999657 0.126050949
v -0.285781503 -0.0749999657 0.164959103
v -0.26383701 -0.0749999657 0.201265723
v -0.237731591 -0.0749999657 0.23439832
v -0.207876965 -0.0749999657 0.263834298
v -0.17474404 -0.0749999657 0.289109439
v -0.138855264 -0.0749999657 0.309825182
v -0.100776665 -0.0749999657 0.325654775
v -0.0611087568 -0.0749999657 0.336348593
v -0.0204771254 -0.0749999657 0.341737986
v 0.0204772875 -0.0749999657 0.341737986
v 0.061108917 -0.0749999657 0.336348563
v 0.100776821 -0.0749999657 0.325654715
v 0.138855413 -0.0749999657 0.309825122
v 0.174744159 -0.0749999657 0.289109349
v 0.207877114 -0.0749999657 0.263834178
v 0.237731695 -0.0749999657 0.234398186
v 0.263837129 -0.0749999657 0.201265588
v 0.285781652 -0.0749999657 0.164958909
v 0.303219229 -0.0749999657 0.126050711
v 0.315874845 -0.0749999657 0.0851546302
v 0.323548943 -0.0749999657 0.0429157689
v 0.342048198 -0.112499967 0
v 0.339351058 -0.112499967 -0.0447688773
v 0.331302136 -0.112499967 -0.0888317302
v 0.318028361 -0.112499967 -0.131493643
v 0.299739093 -0.112499967 -0.172081828
v 0.276722819 -0.112499967 -0.209956169
v 0.249342397 -0.112499967 -0.244519413
v 0.218029708 -0.112499967 -0.275226384
v 0.183278576 -0.112499967 -0.301592886
v 0.145637006 -0.112499967 -0.323203146
v 0.105698705 -0.112499967 -0.339716226
v 0.064093411 -0.112499967 -0.350871801
v 0.0214773361 -0.112499967 -0.35649392
v -0.0214774068 -0.112499967 -0.35649392
v -0.0640934855 -0.112499967 -0.350871801
v -0.10569872 -0.112499967 -0.339716226
v -0.14563708 -0.112499967 -0.323203087
v -0.18327862 -0.112499967 -0.301592857
v -0.218029797 -0.112499967 -0.275226325
v -0.249342397 -0.112499967 -0.244519368
v -0.276722819 -0.112499967 -0.209956139
v -0.299739122 -0.112499967 -0.172081783
v -0.31802839 -0.112499967 -0.131493583
v -0.331302136 -0.112499967 -0.0888316408
v -0.339351058 -0.112499967 -0.0447687842
v -0.342048198 -0.112499967 3.12273087e-08
v -0.339351028 -0.112499967 0.0447689258
v -0.331302106 -0.112499967 0.0888317823
v -0.318028331 -0.112499967 0.131493717
v -0.299739093 -0.112499967 0.172081903
v -0.276722789 -0.112499967 0.209956214
v -0.249342367 -0.112499967 0.244519442
v -0.218029678 -0.112499967 0.275226414
v -0.183278516 -0.112499967 0.301592946
v -0.145636946 -0.112499967 0.323203176
v -0.105698586 -0.112499967 0.339716226
v -0.0640933067 -0.112499967 0.350871831
v -0.0214772262 -0.112499967 0.35649392
v 0.0214773975 -0.112499967 0.35649392
v 0.0640934706 -0.112499967 0.350871801
v 0.105698749 -0.112499967 0.339716226
v 0.145637095 -0.112499967 0.323203087
v 0.18327865 -0.112499967 0.301592857
v 0.218029812 -0.112499967 0.275226325
v 0.249342471 -0.112499967 0.244519278
v 0.276722908 -0.112499967 0.209956065
v 0.299739182 -0.112499967 0.172081679
v 0.31802845 -0.112499967 0.131493479
v 0.331302166 -0.112499967 0.088831529
v 0.339351058 -0.112499967 0.0447688326
v 0.358302146 -0.149999976 0
v 0.355476856 -0.149999976 -0.0466492064
v 0.347045451 -0.149999976 -0.0925627351
v 0.33314091 -0.149999976 -0.137016475
v 0.313982576 -0.149999976 -0.179309413
v 0.289872557 -0.149999976 -0.218774483
v 0.26119101 -0.149999976 -0.254789442
v 0.228390366 -0.149999976 -0.286786139
v 0.191987872 -0.149999976 -0.314260066
v 0.152557597 -0.149999976 -0.336777925
v 0.110721447 -0.149999976 -0.353984565
v 0.0671390966 -0.149999976 -0.365608692
v 0.0224979278 -0.149999976 -0.371466935
v -0.0224980023 -0.149999976 -0.371466935
v -0.0671391711 -0.149999976 -0.365608692
v -0.110721469 -0.149999976 -0.353984535
v -0.152557671 -0.149999976 -0.336777866
v -0.191987932 -0.149999976 -0.314260036
v -0.22839044 -0.149999976 -0.28678605
v -0.26119104 -0.149999976 -0.254789382
v -0.289872557 -0.149999976 -0.218774468
v -0.313982576 -0.149999976 -0.179309353
v -0.333140939 -0.149999976 -0.137016416
v -0.347045451 -0.149999976 -0.0925626457
v -0.355476856 -0.149999976 -0.0466491058
v -0.358302146 -0.149999976 3.25388783e-08
v -0.355476826 -0.149999976 0.0466492549
v -0.347045422 -0.149999976 0.0925627947
v -0.33314088 -0.149999976 0.137016565
v -0.313982517 -0.149999976 0.179309487
v -0.289872527 -0.149999976 0.218774542
v -0.261190981 -0.149999976 0.254789442
v -0.228390336 -0.149999976 0.286786169
v -0.191987813 -0.149999976 0.314260095
v -0.152557537 -0.149999976 0.336777925
v -0.110721327 -0.149999976 0.353984594
v -0.0671389848 -0.149999976 0.365608722
v -0.0224978141 -0.149999976 0.371466935
v 0.022497993 -0.149999976 0.371466935
v 0.0671391636 -0.149999976 0.365608692
v 0.110721499 -0.149999976 0.353984535
v 0.152557701 -0.149999976 0.336777866
v 0.191987962 -0.149999976 0.314260006
v 0.22839047 -0.149999976 0.28678605
v 0.26119113 -0.149999976 0.254789293
v 0.289872617 -0.149999976 0.218774378
v 0.313982666 -0.149999976 0.179309249
v 0.333140999 -0.149999976 0.137016296
v 0.347045481 -0.149999976 0.0925625265
v 0.355476856 -0.149999976 0.0466491617
v 0.37488237 -0.18749997 0
v 0.371926308 -0.18749997 -0.0485567972
v 0.363104731 -0.18749997 -0.0963478312
v 0.348556787 -0.18749997 -0.142619386
v 0.328511924 -0.18749997 -0.186641768
v 0.303286225 -0.18749997 -0.227720663
v 0.273277462 -0.18749997 -0.265208334
v 0.238959 -0.18749997 -0.298513442
v 0.200872004 -0.18749997 -0.327110827
v 0.159617111 -0.18749997 -0.350549519
v 0.11584501 -0.18749997 -0.368459791
v 0.0702459142 -0.18749997 -0.380559266
v 0.0235390067 -0.18749997 -0.386657059
v -0.0235390831 -0.18749997 -0.386657059
v -0.0702459961 -0.18749997 -0.380559236
v -0.115845039 -0.18749997 -0.368459761
v -0.159617171 -0.18749997 -0.350549489
v -0.200872064 -0.18749997 -0.327110797
v -0.238959074 -0.18749997 -0.298513383
v -0.273277491 -0.18749997 -0.265208274
v -0.303286225 -0.18749997 -0.227720633
v -0.328511953 -0.18749997 -0.186641708
v -0.348556817 -0.18749997 -0.142619312
v -0.363104761 -0.18749997 -0.0963477343
v -0.371926308 -0.18749997 -0.0485566892
v -0.37488237 -0.18749997 3.38694655e-08
v -0.371926278 -0.18749997 0.0485568494
v -0.363104731 -0.18749997 0.0963478908
v -0.348556787 -0.18749997 0.142619476
v -0.328511864 -0.18749997 0.186641857
v -0.303286195 -0.18749997 0.227720708
v -0.273277432 -0.18749997 0.265208364
v -0.23895894 -0.18749997 0.298513472
v -0.20087193 -0.18749997 0.327110887
v -0.159617037 -0.18749997 0.350549549
v -0.11584489 -0.18749997 0.368459821
v -0.0702458024 -0.18749997 0.380559295
v -0.0235388856 -0.18749997 0.386657059
v 0.0235390738 -0.18749997 0.386657059
v 0.0702459812 -0.18749997 0.380559236
v 0.115845069 -0.18749997 0.368459761
v 0.159617215 -0.18749997 0.350549489
v 0.200872093 -0.18749997 0.327110767
v 0.238959104 -0.18749997 0.298513353
v 0.273277551 -0.18749997 0.265208185
v 0.303286314 -0.18749997 0.227720559
v 0.328512013 -0.18749997 0.186641604
v 0.348556876 -0.18749997 0.142619208
v 0.36310479 -0.18749997 0.0963476077
v 0.371926308 -0.18749997 0.0485567488
v 0.39178884 -0.224999979 0
v 0.388699472 -0.224999979 -0.0504916459
v 0.379480094 -0.224999979 -0.100187011
v 0.364276081 -0.224999979 -0.148302361
v 0.343327194 -0.224999979 -0.194078907
v 0.316963881 -0.224999979 -0.23679468
v 0.285601735 -0.224999979 -0.275776118
v 0.249735594 -0.224999979 -0.310408354
v 0.209930956 -0.224999979 -0.34014526
v 0.166815549 -0.224999979 -0.364517927
v 0.121069409 -0.224999979 -0.383141875
v 0.0734138787 -0.224999979 -0.395723462
v 0.024600571 -0.224999979 -0.402064234
v -0.024600653 -0.224999979 -0.402064234
v -0.0734139606 -0.224999979 -0.395723432
v -0.121069431 -0.224999979 -0.383141845
v -0.166815594 -0.224999979 -0.364517868
v -0.209931031 -0.224999979 -0.34014526
v -0.249735683 -0.224999979 -0.310408294
v -0.285601765 -0.224999979 -0.275776088
v -0.316963881 -0.224999979 -0.236794665
v -0.343327224 -0.224999979 -0.194078848
v -0.364276081 -0.224999979 -0.148302287
v -0.379480124 -0.224999979 -0.100186914
v -0.388699472 -0.224999979 -0.0504915342
v -0.39178884 -0.224999979 3.52190703e-08
v -0.388699442 -0.224999979 0.0504916981
v -0.379480034 -0.224999979 0.100187078
v -0.364276022 -0.224999979 0.148302451
v -0.343327135 -0.224999979 0.194078997
v -0.316963851 -0.224999979 0.23679474
v -0.285601765 -0.224999979 0.275776148
v -0.249735534 -0.224999979 0.310408384
v -0.209930882 -0.224999979 0.34014532
v -0.166815475 -0.224999979 0.364517957
v -0.121069282 -0.224999979 0.383141875
v -0.073413752 -0.224999979 0.395723462
v -0.0246004462 -0.224999979 0.402064234
v 0.0246006418 -0.224999979 0.402064234
v 0.0734139457 -0.224999979 0.395723432
v 0.121069461 -0.224999979 0.383141845
v 0.166815653 -0.224999979 0.364517868
v 0.209931046 -0.224999979 0.34014523
v 0.249735713 -0.224999979 0.310408264
v 0.285601884 -0.224999979 0.275775999
v 0.316963941 -0.224999979 0.236794561
v 0.343327284 -0.224999979 0.194078743
v 0.364276111 -0.224999979 0.148302183
v 0.379480153 -0.224999979 0.100186788
v 0.388699472 -0.224999979 0.0504915975
v 0.409021616 -0.262499988 0
v 0.405796349 -0.262499988 -0.0524537563
v 0.396171451 -0.262499988 -0.10408029
v 0.380298674 -0.262499988 -0.154065415
v 0.358428329 -0.262499988 -0.201620832
v 0.330905437 -0.262499988 -0.245996535
v 0.298163891 -0.262499988 -0.286492795
v 0.260720164 -0.262499988 -0.322470874
v 0.219164714 -0.262499988 -0.353363335
v 0.174152896 -0.262499988 -0.37868315
v 0.126394615 -0.262499988 -0.398030788
v 0.0766429678 -0.262499988 -0.411101311
v 0.0256826207 -0.262499988 -0.417688489
v -0.0256827064 -0.262499988 -0.417688489
v -0.0766430497 -0.262499988 -0.411101282
v -0.126394644 -0.262499988 -0.398030758
v -0.17415297 -0.262499988 -0.37868309
v -0.219164789 -0.262499988 -0.353363305
v -0.260720253 -0.262499988 -0.322470784
v -0.298163921 -0.262499988 -0.286492765
v -0.330905437 -0.262499988 -0.245996535
v -0.358428359 -0.262499988 -0.201620772
v -0.380298704 -0.262499988 -0.154065341
v -0.396171451 -0.262499988 -0.104080193
v -0.405796349 -0.262499988 -0.0524536446
v -0.409021616 -0.262499988 3.65876858e-08
v -0.405796319 -0.262499988 0.0524538122
v -0.396171421 -0.262499988 0.104080364
v -0.380298615 -0.262499988 0.15406549
v -0.358428299 -0.262499988 0.201620921
v -0.330905408 -0.262499988 0.245996594
v -0.298163861 -0.262499988 0.286492825
v -0.260720134 -0.262499988 0.322470903
v -0.21916464 -0.262499988 0.353363395
v -0.174152806 -0.262499988 0.37868315
v -0.126394495 -0.262499988 0.398030818
v -0.0766428411 -0.262499988 0.411101341
v -0.0256824903 -0.262499988 0.417688489
v 0.0256826933 -0.262499988 0.417688489
v 0.0766430348 -0.262499988 0.411101282
v 0.126394689 -0.262499988 0.398030758
v 0.174152985 -0.262499988 0.37868309
v 0.219164804 -0.262499988 0.353363305
v 0.260720283 -0.262499988 0.322470754
v 0.29816401 -0.262499988 0.286492676
v 0.330905527 -0.262499988 0.245996431
v 0.358428448 -0.262499988 0.201620653
v 0.380298734 -0.262499988 0.154065207
v 0.39617148 -0.262499988 0.104080066
v 0.405796349 -0.262499988 0.0524537042
v 0.426580608 -0.299999982 0
v 0.423216879 -0.299999982 -0.0544431247
v 0.413178772 -0.299999982 -0.108027659
v 0.396624595 -0.299999982 -0.159908533
v 0.373815417 -0.299999982 -0.209267557
v 0.345110953 -0.299999982 -0.255326271
v 0.310963839 -0.299999982 -0.297358394
v 0.271912694 -0.299999982 -0.334700942
v 0.228573292 -0.299999982 -0.366765052
v 0.181629151 -0.299999982 -0.393045127
v 0.131820649 -0.299999982 -0.413126588
v 0.0799331963 -0.299999982 -0.426692814
v 0.0267851576 -0.299999982 -0.433529854
v -0.026785247 -0.299999982 -0.433529854
v -0.0799332857 -0.299999982 -0.426692784
v -0.131820664 -0.299999982 -0.413126588
v -0.181629211 -0.299999982 -0.393045068
v -0.228573367 -0.299999982 -0.366765022
v -0.271912783 -0.299999982 -0.334700882
v -0.310963869 -0.299999982 -0.297358334
v -0.345110953 -0.299999982 -0.255326241
v -0.373815447 -0.299999982 -0.209267482
v -0.396624625 -0.299999982 -0.159908459
v -0.413178802 -0.299999982 -0.108027562
v -0.423216879 -0.299999982 -0.0544430129
v -0.426580608 -0.299999982 3.79753189e-08
v -0.42321685 -0.299999982 0.054443188
v -0.413178772 -0.299999982 0.108027734
v -0.396624565 -0.299999982 0.159908608
v -0.373815358 -0.299999982 0.209267631
v -0.345110953 -0.299999982 0.255326331
v -0.310963809 -0.299999982 0.297358423
v -0.271912634 -0.299999982 0.334700972
v -0.228573218 -0.299999982 0.366765112
v -0.181629062 -0.299999982 0.393045157
v -0.1318205 -0.299999982 0.413126618
v -0.0799330547 -0.299999982 0.426692843
v -0.0267850216 -0.299999982 0.433529854
v 0.0267852321 -0.299999982 0.433529854
v 0.0799332708 -0.299999982 0.426692784
v 0.131820709 -0.299999982 0.413126588
v 0.181629255 -0.299999982 0.393045068
v 0.228573397 -0.299999982 0.366765022
v 0.271912813 -0.299999982 0.334700853
v 0.310963988 -0.299999982 0.297358245
v 0.345111042 -0.299999982 0.255326152
v 0.373815507 -0.299999982 0.209267363
v 0.396624684 -0.299999982 0.159908324
v 0.413178831 -0.299999982 0.108027421
v 0.423216879 -0.299999982 0.0544430763
v 0.444465816 -0.337499976 0
v 0.440961093 -0.337499976 -0.0564597622
v 0.430502117 -0.337499976 -0.11202912
v 0.413253874 -0.337499976 -0.165831715
v 0.389488339 -0.337499976 -0.217019051
v 0.359580427 -0.337499976 -0.264783829
v 0.32400161 -0.337499976 -0.308372885
v 0.283313155 -0.337499976 -0.347098649
v 0.238156676 -0.337499976 -0.380350441
v 0.1892443 -0.337499976 -0.407603949
v 0.137347475 -0.337499976 -0.428429246
v 0.0832845494 -0.337499976 -0.442497998
v 0.027908178 -0.337499976 -0.449588239
v -0.0279082712 -0.337499976 -0.449588239
v -0.0832846388 -0.337499976 -0.442497969
v -0.137347504 -0.337499976 -0.428429246
v -0.189244375 -0.337499976 -0.40760389
v -0.238156751 -0.337499976 -0.380350411
v -0.283313245 -0.337499976 -0.347098559
v -0.32400164 -0.337499976 -0.308372825
v -0.359580427 -0.337499976 -0.2647838
v -0.389488369 -0.337499976 -0.217018977
v -0.413253903 -0.337499976 -0.16583164
v -0.430502146 -0.337499976 -0.112029016
v -0.440961093 -0.337499976 -0.0564596392
v -0.444465816 -0.337499976 3.93819626e-08
v -0.440961063 -0.337499976 0.056459818
v -0.430502087 -0.337499976 0.112029195
v -0.413253814 -0.337499976 0.165831819
v -0.38948828 -0.337499976 0.217019141
v -0.359580398 -0.337499976 0.264783889
v -0.32400158 -0.337499976 0.308372915
v -0.283313096 -0.337499976 0.347098678
v -0.238156587 -0.337499976 0.3803505
v -0.189244211 -0.337499976 0.407603979
v -0.137347341 -0.337499976 0.428429276
v -0.0832844079 -0.337499976 0.442498028
v -0.0279080346 -0.337499976 0.449588239
v 0.0279082563 -0.337499976 0.449588239
v 0.0832846239 -0.337499976 0.442497969
v 0.137347549 -0.337499976 0.428429246
v 0.189244419 -0.337499976 0.40760389
v 0.238156781 -0.337499976 0.380350381
v 0.283313274 -0.337499976 0.347098529
v 0.324001729 -0.337499976 0.308372706
v 0.359580517 -0.337499976 0.26478368
v 0.389488459 -0.337499976 0.217018858
v 0.413253963 -0.337499976 0.165831491
v 0.430502176 -0.337499976 0.112028874
v 0.440961093 -0.337499976 0.0564597063
v 0.46267736 -0.37499994 0
v 0.459029019 -0.37499994 -0.0585036539
v 0.448141515 -0.37499994 -0.116084673
v 0.43018651 -0.37499994 -0.171834961
v 0.405447245 -0.37499994 -0.224875316
v 0.374313861 -0.37499994 -0.27436924
v 0.337277263 -0.37499994 -0.319536239
v 0.294921607 -0.37499994 -0.359663904
v 0.247914895 -0.37499994 -0.394119471
v 0.196998388 -0.37499994 -0.422359556
v 0.142975152 -0.37499994 -0.443938762
v 0.0866970494 -0.37499994 -0.458516806
v 0.0290516876 -0.37499994 -0.465863734
v -0.0290517826 -0.37499994 -0.465863734
v -0.0866971463 -0.37499994 -0.458516777
v -0.142975181 -0.37499994 -0.443938732
v -0.196998477 -0.37499994 -0.422359526
v -0.247914985 -0.37499994 -0.394119442
v -0.294921726 -0.37499994 -0.359663844
v -0.337277293 -0.37499994 -0.319536179
v -0.374313861 -0.37499994 -0.27436921
v -0.405447274 -0.37499994 -0.224875256
v -0.43018654 -0.37499994 -0.171834871
v -0.448141545 -0.37499994 -0.116084568
v -0.459029019 -0.37499994 -0.0585035272
v -0.46267736 -0.37499994 4.08076275e-08
v -0.459028989 -0.37499994 0.0585037172
v -0.448141485 -0.37499994 0.116084747
v -0.43018645 -0.37499994 0.171835065
v -0.405447185 -0.37499994 0.22487542
v -0.374313831 -0.37499994 0.274369299
v -0.337277234 -0.37499994 0.319536269
v -0.294921577 -0.37499994 0.359663934
v -0.247914806 -0.37499994 0.394119531
v -0.196998313 -0.37499994 0.422359586
v -0.142975003 -0.37499994 0.443938792
v -0.0866969079 -0.37499994 0.458516836
v -0.0290515386 -0.37499994 0.465863734
v 0.0290517695 -0.37499994 0.465863734
v 0.0866971314 -0.37499994 0.458516777
v 0.142975226 -0.37499994 0.443938732
v 0.196998507 -0.37499994 0.422359526
v 0.247915015 -0.37499994 0.394119412
v 0.294921756 -0.37499994 0.359663814
v 0.337277383 -0.37499994 0.31953609
v 0.374313951 -0.37499994 0.274369091
v 0.405447364 -0.37499994 0.224875122
v 0.430186599 -0.37499994 0.171834752
v 0.448141545 -0.37499994 0.116084419
v 0.459029019 -0.37499994 0.0585035942
v 0.48121509 -0.412499934 0
v 0.477420568 -0.412499934 -0.0605748072
v 0.466096818 -0.412499934 -0.120194323
v 0.447422504 -0.412499934 -0.177918285
v 0.421692014 -0.412499934 -0.232836381
v 0.389311224 -0.412499934 -0.284082502
v 0.350790679 -0.412499934 -0.330848515
v 0.306738019 -0.412499934 -0.372396767
v 0.257847935 -0.412499934 -0.408072144
v 0.204891369 -0.412499934 -0.437312007
v 0.148703635 -0.412499934 -0.459655166
v 0.090170674 -0.412499934 -0.474749267
v 0.0302156787 -0.412499934 -0.48235631
v -0.0302157812 -0.412499934 -0.48235631
v -0.0901707709 -0.412499934 -0.474749237
v -0.148703665 -0.412499934 -0.459655136
v -0.204891458 -0.412499934 -0.437311947
v -0.257848024 -0.412499934 -0.408072114
v -0.306738138 -0.412499934 -0.372396708
v -0.350790709 -0.412499934 -0.330848455
v -0.389311254 -0.412499934 -0.284082472
v -0.421692044 -0.412499934 -0.232836321
v -0.447422504 -0.412499934 -0.177918196
v -0.466096848 -0.412499934 -0.120194204
v -0.477420568 -0.412499934 -0.0605746768
v -0.48121509 -0.412499934 4.2252303e-08
v -0.477420539 -0.412499934 0.0605748706
v -0.466096789 -0.412499934 0.120194398
v -0.447422415 -0.412499934 0.177918389
v -0.421691954 -0.412499934 0.232836485
v -0.389311194 -0.412499934 0.284082532
v -0.35079065 -0.412499934 0.330848545
v -0.306737959 -0.412499934 0.372396797
v -0.257847846 -0.412499934 0.408072203
v -0.204891294 -0.412499934 0.437312037
v -0.148703471 -0.412499934 0.459655195
v -0.0901705176 -0.412499934 0.474749297
v -0.030215526 -0.412499934 0.48235631
v 0.0302157663 -0.412499934 0.48235631
v 0.090170756 -0.412499934 0.474749237
v 0.148703709 -0.412499934 0.459655136
v 0.204891518 -0.412499934 0.437311947
v 0.257848024 -0.412499934 0.408072084
v 0.306738168 -0.412499934 0.372396678
v 0.350790828 -0.412499934 0.330848336
v 0.389311284 -0.412499934 0.284082353
v 0.421692103 -0.412499934 0.232836187
v 0.447422564 -0.412499934 0.177918062
v 0.466096908 -0.412499934 0.120194055
v 0.477420568 -0.412499934 0.0605747476
v 0.499999762 -0.449999928 0
v 0.496057123 -0.449999928 -0.0626665875
v 0.484291345 -0.449999928 -0.124344893
v 0.464888036 -0.449999928 -0.184062198
v 0.438153118 -0.449999928 -0.240876734
v 0.404508322 -0.449999928 -0.293892473
v 0.364484102 -0.449999928 -0.342273444
v 0.318711817 -0.449999928 -0.385256469
v 0.267913252 -0.449999928 -0.422163755
v 0.212889493 -0.449999928 -0.45241335
v 0.154508412 -0.449999928 -0.475528032
v 0.0936905667 -0.449999928 -0.491143405
v 0.0313951746 -0.449999928 -0.499013126
v -0.0313952789 -0.449999928 -0.499013126
v -0.093690671 -0.449999928 -0.491143376
v -0.154508442 -0.449999928 -0.475528002
v -0.212889582 -0.449999928 -0.452413291
v -0.267913342 -0.449999928 -0.422163725
v -0.318711936 -0.449999928 -0.38525638
v -0.364484131 -0.449999928 -0.342273384
v -0.404508352 -0.449999928 -0.293892443
v -0.438153148 -0.449999928 -0.24087666
v -0.464888066 -0.449999928 -0.184062108
v -0.484291375 -0.449999928 -0.124344774
v -0.496057123 -0.449999928 -0.0626664534
v -0.499999762 -0.449999928 4.3711367e-08
v -0.496057093 -0.449999928 0.0626666546
v -0.484291315 -0.449999928 0.124344975
v -0.464887977 -0.449999928 0.184062302
v -0.438153058 -0.449999928 0.240876839
v -0.404508293 -0.449999928 0.293892533
v -0.364484072 -0.449999928 0.342273474
v -0.318711758 -0.449999928 0.385256499
v -0.267913163 -0.449999928 0.422163814
v -0.212889403 -0.449999928 0.45241338
v -0.154508248 -0.449999928 0.475528061
v -0.0936904103 -0.449999928 0.491143435
v -0.0313950144 -0.449999928 0.499013126
v 0.031395264 -0.449999928 0.499013126
v 0.0936906561 -0.449999928 0.491143376
v 0.154508486 -0.449999928 0.475528002
v 0.212889627 -0.449999928 0.452413291
v 0.267913371 -0.449999928 0.422163695
v 0.318711966 -0.449999928 0.38525635
v 0.364484251 -0.449999928 0.342273265
v 0.404508442 -0.449999928 0.293892324
v 0.438153237 -0.449999928 0.240876526
v 0.464888126 -0.449999928 0.184061959
v 0.484291404 -0.449999928 0.124344617
v 0.496057123 -0.449999928 0.0626665279
g 
f 1 51 52 2
f 2 52 53 3
f 3 53 54 4
f 4 54 55 5
f 5 55 56 6
f 6 56 57 7
f 7 57 58 8
f 8 58 59 9
f 9 59 60 10
f 10 60 61 11
f 11 61 62 12
f 12 62 63 13
f 13 63 64 14
f 14 64 65 15
f 15 65 66 16
f 16 66 67 17
f 17 67 68 18
f 18 68 69 19
f 19 69 70 20
f 20 70 71 21
f 21 71 72 22
f 22 72 73 23
f 23 73 74 24
f 24 74 75 25
f 25 75 76 26
f 26 76 77 27
f 27 77 78 28
f 28 78 79 29
f 29 79 80 30
f 30 80 81 31
f 31 81 82 32
f 32 82 83 33
f 33 83 84 34
f 34 84 85 35
f 35 85 86 36
f 36 86 87 37
f 37 87 88 38
f 38 88 89 39
f 39 89 90 40
f 40 90 91 41
f 41 91 92 42
f 42 92 93 43
f 43 93 94 44
f 44 94 95 45
f 45 95 96 46
f 46 96 97 47
f 47 97 98 48
f 48 98 99 49
f 49 99 100 50
f 50 100 51 1
f 51 101 102 52
f 52 102 103 53
f 53 103 104 54
f 54 104 105 55
f 55 105 106 56
f 56 106 107 57
f 57 107 108 58
f 58 108 109 59
f 59 109 110 60
f 60 110 111 61
f 61 111 112 62
f 62 112 113 63
f 63 113 114 64
f 64 114 115 65
f 65 115 116 66
f 66 116 117 67
f 67 117 118 68
f 68 118 119 69
f 69 119 120 70
f 70 120 121 71
f 71 121 122 72
f 72 122 123 73
f 73 123 124 74
f 74 124 125 75
f 75 125 126 76
f 76 126 127 77
f 77 127 128 78
f 78 128 129 79
f 79 129 130 80
f 80 130 131 81
f 81 131 132 82
f 82 132 133 83
f 83 133 134 84
f 84 134 135 85
f 85 135 136 86
f 86 136 137 87
f 87 137 138 88
f 88 138 139 89
f 89 139 140 90
f 90 140 141 91
f 91 141 142 92
f 92 142 143 93
f 93 143 144 94
f 94 144 145 95
f 95 145 146 96
f 96 146 147 97
f 97 147 148 98
f 98 148 149 99
f 99 149 150 100
f 100 150 101 51
f 101 151 152 102
f 102 152 153 103
f 103 153 154 104
f 104 154 155 105
f 105 155 156 106
f 106 156 157 107
f 107 157 158 108
f 108 158 159 109
f 109 159 160 110
f 110 160 161 111
f 111 161 162 112
f 112 162 163 113
f 113 163 164 114
f 114 164 165 115
f 115 165 166 116
f 116 166 167 117
f 117 167 168 118
f 118 168 169 119
f 119 169 170 120
f 120 170 171 121
f 121 171 172 122
f 122 172 173 123
f 123 173 174 124
f 124 174 175 125
f 125 175 176 126
f 126 176 177 127
f 127 177 178 128
f 128 178 179 129
f 129 179 180 130
f 130 180 181 131
f 131 181 182 132
f 132 182 183 133
f 133 183 184 134
f 134 184 185 135
f 135 185 186 136
f 136 186 187 137
f 137 187 188 138
f 138 188 189 139
f 139 189 190 140
f 140 190 191 141
f 141 191 192 142
f 142 192 193 143
f 143 193 194 144
f 144 194 195 145
f 145 195 196 146
f 146 196 197 147
f 147 197 198 148
f 148 198 199 149
f 149 199 200 150
f 150 200 151 101
f 151 201 202 152
f 152 202 203 153
f 153 203 204 154
f 154 204 205 155
f 155 205 206 156
f 156 206 207 157
f 157 207 208 158
f 158 208 209 159
f 159 209 210 160
f 160 210 211 161
f 161 211 212 162
f 162 212 213 163
f 163 213 214 164
f 164 214 215 165
f 165 215 216 166
f 166 216 217 167
f 167 217 218 168
f 168 218 219 169
f 169 219 220 170
f 170 220 221 171
f 171 221 222 172
f 172 222 223 173
f 173 223 224 174
f 174 224 225 175
f 175 225 226 176
f 176 226 227 177
f 177 227 228 178
f 178 228 229 179
f 179 229 230 180
f 180 230 231 181
f 181 231 232 182
f 182 232 233 183
f 183 233 234 184
f 184 234 235 185
f 185 235 236 186
f 186 236 237 187
f 187 237 238 188
f 188 238 239 189
f 189 239 240 190
f 190 240 241 191
f 191 241 242 192
f 192 242 243 193
f 193 243 244 194
f 194 244 245 195
f 195 245 246 196
f 196 246 247 197
f 197 247 248 198
f 198 248 249 199
f 199 249 250 200
f 200 250 201 151
f 201 251 252 202
f 202 252 253 203
f 203 253 254 204
f 204 254 255 205
f 205 255 256 206
f 206 256 257 207
f 207 257 258 208
f 208 258 259 209
f 209 259 260 210
f 210 260 261 211
f 211 261 262 212
f 212 262 263 213
f 213 263 264 214
f 214 264 265 215
f 215 265 266 216
f 216 266 267 217
f 217 267 268 218
f 218 268 269 219
f 219 269 270 220
f 220 270 271 221
f 221 271 272 222
f 222 272 273 223
f 223 273 274 224
f 224 274 275 225
f 225 275 276 226
f 226 276 277 227
f 227 277 278 228
f 228 278 279 229
f 229 279 280 230
f 230 280 281 231
f 231 281 282 232
f 232 282 283 233
f 233 283 284 234
f 234 284 285 235
f 235 285 286 236
f 236 286 287 237
f 237 287 288 238
f 238 288 289 239
f 239 289 290 240
f 240 290 291 241
f 241 291 292 242
f 242 292 293 243
f 243 293 294 244
f 244 294 295 245
f 245 295 296 246
f 246 296 297 247
f 247 297 298 248
f 248 298 299 249
f 249 299 300 250
f 250 300 251 201
f 251 301 302 252
f 252 302 303 253
f 253 303 304 254
f 254 304 305 255
f 255 305 306 256
f 256 306 307 257
f 257 307 308 258
f 258 308 309 259
f 259 309 310 260
f 260 310 311 261
f 261 311 312 262
f 262 312 313 263
f 263 313 314 264
f 264 314 315 265
f 265 315 316 266
f 266 316 317 267
f 267 317 318 268
f 268 318 319 269
f 269 319 320 270
f 270 320 321 271
f 271 321 322 272
f 272 322 323 273
f 273 323 324 274
f 274 324 325 275
f 275 325 326 276
f 276 326 327 277
f 277 327 328 278
f 278 328 329 279
f 279 329 330 280
f 280 330 331 281
f 281 331 332 282
f 282 332 333 283
f 283 333 334 284
f 284 334 335 285
f 285 335 336 286
f 286 336 337 287
f 287 337 338 288
f 288 338 339 289
f 289 339 340 290
f 290 340 341 291
f 291 341 342 292
f 292 342 343 293
f 293 343 344 294
f 294 344 345 295
f 295 345 346 296
f 296 346 347 297
f 297 347 348 298
f 298 348 349 299
f 299 349 350 300
f 300 350 301 251
f 301 351 352 302
f 302 352 353 303
f 303 353 354 304
f 304 354 355 305
f 305 355 356 306
f 306 356 357 307
f 307 357 358 308
f 308 358 359 309
f 309 359 360 310
f 310 360 361 311
f 311 361 362 312
f 312 362 363 313
f 313 363 364 314
f 314 364 365 315
f 315 365 366 316
f 316 366 367 317
f 317 367 368 318
f 318 368 369 319
f 319 369 370 320
f 320 370 371 321
f 321 371 372 322
f 322 372 373 323
f 323 373 374 324
f 324 374 375 325
f 325 375 376 326
f 326 376 377 327
f 327 377 378 328
f 328 378 379 329
f 329 379 380 330
f 330 380 381 331
f 331 381 382 332
f 332 382 383 333
f 333 383 384 334
f 334 384 385 335
f 335 385 386 336
f 336 386 387 337
f 337 387 388 338
f 338 388 389 339
f 339 389 390 340
f 340 390 391 341
f 341 391 392 342
f 342 392 393 343
f 343 393 394 344
f 344 394 395 345
f 345 395 396 346
f 346 396 397 347
f 347 397 398 348
f 348 398 399 349
f 349 399 400 350
f 350 400 351 301
f 351 401 402 352
f 352 402 403 353
f 353 403 404 354
f 354 404 405 355
f 355 405 406 356
f 356 406 407 357
f 357 407 408 358
f 358 408 409 359
f 359 409 410 360
f 360 410 411 361
f 361 411 412 362
f 362 412 413 363
f 363 413 414 364
f 364 414 415 365
f 365 415 416 366
f 366 416 417 367
f 367 417 418 368
f 368 418 419 369
f 369 419 420 370
f 370 420 421 371
f 371 421 422 372
f 372 422 423 373
f 373 423 424 374
f 374 424 425 375
f 375 425 426 376
f 376 426 427 377
f 377 427 428 378
f 378 428 429 379
f 379 429 430 380
f 380 430 431 381
f 381 431 432 382
f 382 432 433 383
f 383 433 434 384
f 384 434 435 385
f 385 435 436 386
f 386 436 437 387
f 387 437 438 388
f 388 438 439 389
f 389 439 440 390
f 390 440 441 391
f 391 441 442 392
f 392 442 443 393
f 393 443 444 394
f 394 444 445 395
f 395 445 446 396
f 396 446 447 397
f 397 447 448 398
f 398 448 449 399
f 399 449 450 400
f 400 450 401 351
f 401 451 452 402
f 402 452 453 403
f 403 453 454 404
f 404 454 455 405
f 405 455 456 406
f 406 456 457 407
f 407 457 458 408
f 408 458 459 409
f 409 459 460 410
f 410 460 461 411
f 411 461 462 412
f 412 462 463 413
f 413 463 464 414
f 414 464 465 415
f 415 465 466 416
f 416 466 467 417
f 417 467 468 418
f 418 468 469 419
f 419 469 470 420
f 420 470 471 421
f 421 471 472 422
f 422 472 473 423
f 423 473 474 424
f 424 474 475 425
f 425 475 476 426
f 426 476 477 427
f 427 477 478 428
f 428 478 479 429
f 429 479 480 430
f 430 480 481 431
f 431 481 482 432
f 432 482 483 433
f 433 483 484 434
f 434 484 485 435
f 435 485 486 436
f 436 486 487 437
f 437 487 488 438
f 438 488 489 439
f 439 489 490 440
f 440 490 491 441
f 441 491 492 442
f 442 492 493 443
f 443 493 494 444
f 444 494 495 445
f 445 495 496 446
f 446 496 497 447
f 447 497 498 448
f 448 498 499 449
f 449 499 500 450
f 450 500 451 401
f 451 501 502 452
f 452 502 503 453
f 453 503 504 454
f 454 504 505 455
f 455 505 506 456
f 456 506 507 457
f 457 507 508 458
f 458 508 509 459
f 459 509 510 460
f 460 510 511 461
f 461 511 512 462
f 462 512 513 463
f 463 513 514 464
f 464 514 515 465
f 465 515 516 466
f 466 516 517 467
f 467 517 518 468
f 468 518 519 469
f 469 519 520 470
f 470 520 521 471
f 471 521 522 472
f 472 522 523 473
f 473 523 524 474
f 474 524 525 475
f 475 525 526 476
f 476 526 527 477
f 477 527 528 478
f 478 528 529 479
f 479 529 530 480
f 480 530 531 481
f 481 531 532 482
f 482 532 533 483
f 483 533 534 484
f 484 534 535 485
f 485 535 536 486
f 486 536 537 487
f 487 537 538 488
f 488 538 539 489
f 489 539 540 490
f 490 540 541 491
f 491 541 542 492
f 492 542 543 493
f 493 543 544 494
f 494 544 545 495
f 495 545 546 496
f 496 546 547 497
f 497 547 548 498
f 498 548 549 499
f 499 549 550 500
f 500 550 501 451
f 501 551 552 502
f 502 552 553 503
f 503 553 554 504
f 504 554 555 505
f 505 555 556 506
f 506 556 557 507
f 507 557 558 508
f 508 558 559 509
f 509 559 560 510
f 510 560 561 511
f 511 561 562 512
f 512 562 563 513
f 513 563 564 514
f 514 564 565 515
f 515 565 566 516
f 516 566 567 517
f 517 567 568 518
f 518 568 569 519
f 519 569 570 520
f 520 570 571 521
f 521 571 572 522
f 522 572 573 523
f 523 573 574 524
f 524 574 575 525
f 525 575 576 526
f 526 576 577 527
f 527 577 578 528
f 528 578 579 529
f 529 579 580 530
f 530 580 581 531
f 531 581 582 532
f 532 582 583 533
f 533 583 584 534
f 534 584 585 535
f 535 585 586 536
f 536 586 587 537
f 537 587 588 538
f 538 588 589 539
f 539 589 590 540
f 540 590 591 541
f 541 591 592 542
f 542 592 593 543
f 543 593 594 544
f 544 594 595 545
f 545 595 596 546
f 546 596 597 547
f 547 597 598 548
f 548 598 599 549
f 549 599 600 550
f 550 600 551 501
f 551 601 602 552
f 552 602 603 553
f 553 603 604 554
f 554 604 605 555
f 555 605 606 556
f 556 606 607 557
f 557 607 608 558
f 558 608 609 559
f 559 609 610 560
f 560 610 611 561
f 561 611 612 562
f 562 612 613 563
f 563 613 614 564
f 564 614 615 565
f 565 615 616 566
f 566 616 617 567
f 567 617 618 568
f 568 618 619 569
f 569 619 620 570
f 570 620 621 571
f 571 621 622 572
f 572 622 623 573
f 573 623 624 574
f 574 624 625 575
f 575 625 626 576
f 576 626 627 577
f 577 627 628 578
f 578 628 629 579
f 579 629 630 580
f 580 630 631 581
f 581 631 632 582
f 582 632 633 583
f 583 633 634 584
f 584 634 635 585
f 585 635 636 586
f 586 636 637 587
f 587 637 638 588
f 588 638 639 589
f 589 639 640 590
f 590 640 641 591
f 591 641 642 592
f 592 642 643 593
f 593 643 644 594
f 594 644 645 595
f 595 645 646 596
f 596 646 647 597
f 597 647 648 598
f 598 648 649 599
f 599 649 650 600
f 600 650 601 551
f 601 651 652 602
f 602 652 653 603
f 603 653 654 604
f 604 654 655 605
f 605 655 656 606
f 606 656 657 607
f 607 657 658 608
f 608 658 659 609
f 609 659 660 610
f 610 660 661 611
f 611 661 662 612
f 612 662 663 613
f 613 663 664 614
f 614 664 665 615
f 615 665 666 616
f 616 666 667 617
f 617 667 668 618
f 618 668 669 619
f 619 669 670 620
f 620 670 671 621
f 621 671 672 622
f 622 672 673 623
f 623 673 674 624
f 624 674 675 625
f 625 675 676 626
f 626 676 677 627
f 627 677 678 628
f 628 678 679 629
f 629 679 680 630
f 630 680 681 631
f 631 681 682 632
f 632 682 683 633
f 633 683 684 634
f 634 684 685 635
f 635 685 686 636
f 636 686 687 637
f 637 687 688 638
f 638 688 689 639
f 639 689 690 640
f 640 690 691 641
f 641 691 692 642
f 642 692 693 643
f 643 693 694 644
f 644 694 695 645
f 645 695 696 646
f 646 696 697 647
f 647 697 698 648
f 648 698 699 649
f 649 699 700 650
f 650 700 651 601
f 651 701 702 652
f 652 702 703 653
f 653 703 704 654
f 654 704 705 655
f 655 705 706 656
f 656 706 707 657
f 657 707 708 658
f 658 708 709 659
f 659 709 710 660
f 660 710 711 661
f 661 711 712 662
f 662 712 713 663
f 663 713 714 664
f 664 714 715 665
f 665 715 716 666
f 666 716 717 667
f 667 717 718 668
f 668 718 719 669
f 669 719 720 670
f 670 720 721 671
f 671 721 722 672
f 672 722 723 673
f 673 723 724 674
f 674 724 725 675
f 675 725 726 676
f 676 726 727 677
f 677 727 728 678
f 678 728 729 679
f 679 729 730 680
f 680 730 731 681
f 681 731 732 682
f 682 732 733 683
f 683 733 734 684
f 684 734 735 685
f 685 735 736 686
f 686 736 737 687
f 687 737 738 688
f 688 738 739 689
f 689 739 740 690
f 690 740 741 691
f 691 741 742 692
f 692 742 743 693
f 693 743 744 694
f 694 744 745 695
f 695 745 746 696
f 696 746 747 697
f 697 747 748 698
f 698 748 749 699
f 699 749 750 700
f 700 750 701 651
f 701 751 752 702
f 702 752 753 703
f 703 753 754 704
f 704 754 755 705
f 705 755 756 706
f 706 756 757 707
f 707 757 758 708
f 708 758 759 709
f 709 759 760 710
f 710 760 761 711
f 711 761 762 712
f 712 762 763 713
f 713 763 764 714
f 714 764 765 715
f 715 765 766 716
f 716 766 767 717
f 717 767 768 718
f 718 768 769 719
f 719 769 770 720
f 720 770 771 721
f 721 771 772 722
f 722 772 773 723
f 723 773 774 724
f 724 774 775 725
f 725 775 776 726
f 726 776 777 727
f 727 777 778 728
f 728 778 779 729
f 729 779 780 730
f 730 780 781 731
f 731 781 782 732
f 732 782 783 733
f 733 783 784 734
f 734 784 785 735
f 735 785 786 736
f 736 786 787 737
f 737 787 788 738
f 738 788 789 739
f 739 789 790 740
f 740 790 791 741
f 741 791 792 742
f 742 792 793 743
f 743 793 794 744
f 744 794 795 745
f 745 795 796 746
f 746 796 797 747
f 747 797 798 748
f 748 798 799 749
f 749 799 800 750
f 750 800 751 701
f 751 801 802 752
f 752 802 803 753
f 753 803 804 754
f 754 804 805 755
f 755 805 806 756
f 756 806 807 757
f 757 807 808 758
f 758 808 809 759
f 759 809 810 760
f 760 810 811 761
f 761 811 812 762
f 762 812 813 763
f 763 813 814 764
f 764 814 815 765
f 765 815 816 766
f 766 816 817 767
f 767 817 818 768
f 768 818 819 769
f 769 819 820 770
f 770 820 821 771
f 771 821 822 772
f 772 822 823 773
f 773 823 824 774
f 774 824 825 775
f 775 825 826 776
f 776 826 827 777
f 777 827 828 778
f 778 828 829 779
f 779 829 830 780
f 780 830 831 781
f 781 831 832 782
f 782 832 833 783
f 783 833 834 784
f 784 834 835 785
f 785 835 836 786
f 786 836 837 787
f 787 837 838 788
f 788 838 839 789
f 789 839 840 790
f 790 840 841 791
f 791 841 842 792
f 792 842 843 793
f 793 843 844 794
f 794 844 845 795
f 795 845 846 796
f 796 846 847 797
f 797 847 848 798
f 798 848 849 799
f 799 849 850 800
f 800 850 801 751
f 801 851 852 802
f 802 852 853 803
f 803 853 854 804
f 804 854 855 805
f 805 855 856 806
f 806 856 857 807
f 807 857 858 808
f 808 858 859 809
f 809 859 860 810
f 810 860 861 811
f 811 861 862 812
f 812 862 863 813
f 813 863 864 814
f 814 864 865 815
f 815 865 866 816
f 816 866 867 817
f 817 867 868 818
f 818 868 869 819
f 819 869 870 820
f 820 870 871 821
f 821 871 872 822
f 822 872 873 823
f 823 873 874 824
f 824 874 875 825
f 825 875 876 826
f 826 876 877 827
f 827 877 878 828
f 828 878 879 829
f 829 879 880 830
f 830 880 881 831
f 831 881 882 832
f 832 882 883 833
f 833 883 884 834
f 834 884 885 835
f 835 885 886 836
f 836 886 887 837
f 837 887 888 838
f 838 888 889 839
f 839 889 890 840
f 840 890 891 841
f 841 891 892 842
f 842 892 893 843
f 843 893 894 844
f 844 894 895 845
f 845 895 896 846
f 846 896 897 847
f 847 897 898 848
f 848 898 899 849
f 849 899 900 850
f 850 900 851 801
f 851 901 902 852
f 852 902 903 853
f 853 903 904 854
f 854 904 905 855
f 855 905 906 856
f 856 906 907 857
f 857 907 908 858
f 858 908 909 859
f 859 909 910 860
f 860 910 911 861
f 861 911 912 862
f 862 912 913 863
f 863 913 914 864
f 864 914 915 865
f 865 915 916 866
f 866 916 917 867
f 867 917 918 868
f 868 918 919 869
f 869 919 920 870
f 870 920 921 871
f 871 921 922 872
f 872 922 923 873
f 873 923 924 874
f 874 924 925 875
f 875 925 926 876
f 876 926 927 877
f 877 927 928 878
f 878 928 929 879
f 879 929 930 880
f 880 930 931 881
f 881 931 932 882
f 882 932 933 883
f 883 933 934 884
f 884 934 935 885
f 885 935 936 886
f 886 936 937 887
f 887 937 938 888
f 888 938 939 889
f 889 939 940 890
f 890 940 941 891
f 891 941 942 892
f 892 942 943 893
f 893 943 944 894
f 894 944 945 895
f 895 945 946 896
f 896 946 947 897
f 897 947 948 898
f 898 948 949 899
f 899 949 950 900
f 900 950 901 851
f 901 951 952 902
f 902 952 953 903
f 903 953 954 904
f 904 954 955 905
f 905 955 956 906
f 906 956 957 907
f 907 957 958 908
f 908 958 959 909
f 909 959 960 910
f 910 960 961 911
f 911 961 962 912
f 912 962 963 913
f 913 963 964 914
f 914 964 965 915
f 915 965 966 916
f 916 966 967 917
f 917 967 968 918
f 918 968 969 919
f 919 969 970 920
f 920 970 971 921
f 921 971 972 922
f 922 972 973 923
f 923 973 974 924
f 924 974 975 925
f 925 975 976 926
f 926 976 977 927
f 927 977 978 928
f 928 978 979 929
f 929 979 980 930
f 930 980 981 931
f 931 981 982 932
f 932 982 983 933
f 933 983 984 934
f 934 984 985 935
f 935 985 986 936
f 936 986 987 937
f 937 987 988 938
f 938 988 989 939
f 939 989 990 940
f 940 990 991 941
f 941 991 992 942
f 942 992 993 943
f 943 993 994 944
f 944 994 995 945
f 945 995 996 946
f 946 996 997 947
f 947 997 998 948
f 948 998 999 949
f 949 999 1000 950
f 950 1000 951 901
f 951 1001 1002 952
f 952 1002 1003 953
f 953 1003 1004 954
f 954 1004 1005 955
f 955 1005 1006 956
f 956 1006 1007 957
f 957 1007 1008 958
f 958 1008 1009 959
f 959 1009 1010 960
f 960 1010 1011 961
f 961 1011 1012 962
f 962 1012 1013 963
f 963 1013 1014 964
f 964 1014 1015 965
f 965 1015 1016 966
f 966 1016 1017 967
f 967 1017 1018 968
f 968 1018 1019 969
f 969 1019 1020 970
f 970 1020 1021 971
f 971 1021 1022 972
f 972 1022 1023 973
f 973 1023 1024 974
f 974 1024 1025 975
f 975 1025 1026 976
f 976 1026 1027 977
f 977 1027 1028 978
f 978 1028 1029 979
f 979 1029 1030 980
f 980 1030 1031 981
f 981 1031 1032 982
f 982 1032 1033 983
f 983 1033 1034 984
f 984 1034 1035 985
f 985 1035 1036 986
f 986 1036 1037 987
f 987 1037 1038 988
f 988 1038 1039 989
f 989 1039 1040 990
f 990 1040 1041 991
f 991 1041 1042 992
f 992 1042 1043 993
f 993 1043 1044 994
f 994 1044 1045 995
f 995 1045 1046 996
f 996 1046 1047 997
f 997 1047 1048 998
f 998 1048 1049 999
f 999 1049 1050 1000
f 1000 1050 1001 951
f 1001 1051 1052 1002
f 1002 1052 1053 1003
f 1003 1053 1054 1004
f 1004 1054 1055 1005
f 1005 1055 1056 1006
f 1006 1056 1057 1007
f 1007 1057 1058 1008
f 1008 1058 1059 1009
f 1009 1059 1060 1010
f 1010 1060 1061 1011
f 1011 1061 1062 1012
f 1012 1062 1063 1013
f 1013 1063 1064 1014
f 1014 1064 1065 1015
f 1015 1065 1066 1016
f 1016 1066 1067 1017
f 1017 1067 1068 1018
f 1018 1068 1069 1019
f 1019 1069 1070 1020
f 1020 1070 1071 1021
f 1021 1071 1072 1022
f 1022 1072 1073 1023
f 1023 1073 1074 1024
f 1024 1074 1075 1025
f 1025 1075 1076 1026
f 1026 1076 1077 1027
f 1027 1077 1078 1028
f 1028 1078 1079 1029
f 1029 1079 1080 1030
f 1030 1080 1081 1031
f 1031 1081 1082 1032
f 1032 1082 1083 1033
f 1033 1083 1084 1034
f 1034 1084 1085 1035
f 1035 1085 1086 1036
f 1036 1086 1087 1037
f 1037 1087 1088 1038
f 1038 1088 1089 1039
f 1039 1089 1090 1040
f 1040 1090 1091 1041
f 1041 1091 1092 1042
f 1042 1092 1093 1043
f 1043 1093 1094 1044
f 1044 1094 1095 1045
f 1045 1095 1096 1046
f 1046 1096 1097 1047
f 1047 1097 1098 1048
f 1048 1098 1099 1049
f 1049 1099 1100 1050
f 1050 1100 1051 1001
f 1051 1101 1102 1052
f 1052 1102 1103 1053
f 1053 1103 1104 1054
f 1054 1104 1105 1055
f 1055 1105 1106 1056
f 1056 1106 1107 1057
f 1057 1107 1108 1058
f 1058 1108 1109 1059
f 1059 1109 1110 1060
f 1060 1110 1111 1061
f 1061 1111 1112 1062
f 1062 1112 1113 1063
f 1063 1113 1114 1064
f 1064 1114 1115 1065
f 1065 1115 1116 1066
f 1066 1116 1117 1067
f 1067 1117 1118 1068
f 1068 1118 1119 1069
f 1069 1119 1120 1070
f 1070 1120 1121 1071
f 1071 1121 1122 1072
f 1072 1122 1123 1073
f 1073 1123 1124 1074
f 1074 1124 1125 1075
f 1075 1125 1126 1076
f 1076 1126 1127 1077
f 1077 1127 1128 1078
f 1078 1128 1129 1079
f 1079 1129 1130 1080
f 1080 1130 1131 1081
f 1081 1131 1132 1082
f 1082 1132 1133 1083
f 1083 1133 1134 1084
f 1084 1134 1135 1085
f 1085 1135 1136 1086
f 1086 1136 1137 1087
f 1087 1137 1138 1088
f 1088 1138 1139 1089
f 1089 1139 1140 1090
f 1090 1140 1141 1091
f 1091 1141 1142 1092
f 1092 1142 1143 1093
f 1093 1143 1144 1094
f 1094 1144 1145 1095
f 1095 1145 1146 1096
f 1096 1146 1147 1097
f 1097 1147 1148 1098
f 1098 1148 1149 1099
f 1099 1149 1150 1100
f 1100 1150 1101 1051
f 1101 1151 1152 1102
f 1102 1152 1153 1103
f 1103 1153 1154 1104
f 1104 1154 1155 1105
f 1105 1155 1156 1106
f 1106 1156 1157 1107
f 1107 1157 1158 1108
f 1108 1158 1159 1109
f 1109 1159 1160 1110
f 1110 1160 1161 1111
f 1111 1161 1162 1112
f 1112 1162 1163 1113
f 1113 1163 1164 1114
f 1114 1164 1165 1115
f 1115 1165 1166 1116
f 1116 1166 1167 1117
f 1117 1167 1168 1118
f 1118 1168 1169 1119
f 1119 1169 1170 1120
f 1120 1170 1171 1121
f 1121 1171 1172 1122
f 1122 1172 1173 1123
f 1123 1173 1174 1124
f 1124 1174 1175 1125
f 1125 1175 1176 1126
f 1126 1176 1177 1127
f 1127 1177 1178 1128
f 1128 1178 1179 1129
f 1129 1179 1180 1130
f 1130 1180 1181 1131
f 1131 1181 1182 1132
f 1132 1182 1183 1133
f 1133 1183 1184 1134
f 1134 1184 1185 1135
f 1135 1185 1186 1136
f 1136 1186 1187 1137
f 1137 1187 1188 1138
f 1138 1188 1189 1139
f 1139 1189 1190 1140
f 1140 1190 1191 1141
f 1141 1191 1192 1142
f 1142 1192 1193 1143
f 1143 1193 1194 1144
f 1144 1194 1195 1145
f 1145 1195 1196 1146
f 1146 1196 1197 1147
f 1147 1197 1198 1148
f 1148 1198 1199 1149
f 1149 1199 1200 1150
f 1150 1200 1151 1101
f 1151 1201 1202 1152
f 1152 1202 1203 1153
f 1153 1203 1204 1154
f 1154 1204 1205 1155
f 1155 1205 1206 1156
f 1156 1206 1207 1157
f 1157 1207 1208 1158
f 1158 1208 1209 1159
f 1159 1209 1210 1160
f 1160 1210 1211 1161
f 1161 1211 1212 1162
f 1162 1212 1213 1163
f 1163 1213 1214 1164
f 1164 1214 1215 1165
f 1165 1215 1216 1166
f 1166 1216 1217 1167
f 1167 1217 1218 1168
f 1168 1218 1219 1169
f 1169 1219 1220 1170
f 1170 1220 1221 1171
f 1171 1221 1222 1172
f 1172 1222 1223 1173
f 1173 1223 1224 1174
f 1174 1224 1225 1175
f 1175 1225 1226 1176
f 1176 1226 1227 1177
f 1177 1227 1228 1178
f 1178 1228 1229 1179
f 1179 1229 1230 1180
f 1180 1230 1231 1181
f 1181 1231 1232 1182
f 1182 1232 1233 1183
f 1183 1233 1234 1184
f 1184 1234 1235 1185
f 1185 1235 1236 1186
f 1186 1236 1237 1187
f 1187 1237 1238 1188
f 1188 1238 1239 1189
f 1189 1239 1240 1190
f 1190 1240 1241 1191
f 1191 1241 1242 1192
f 1192 1242 1243 1193
f 1193 1243 1244 1194
f 1194 1244 1245 1195
f 1195 1245 1246 1196
f 1196 1246 1247 1197
f 1197 1247 1248 1198
f 1198 1248 1249 1199
f 1199 1249 1250 1200
f 1200 1250 1201 1151
