# File exported by Houdini 21.0.559 (www.sidefx.com)
# 32 points
# 96 vertices
# 24 primitives
# Bounds: [-0.699999928, 0, -0.699999928] to [0.699999928, 2, 0.699999928]
g 
v 0.550000012 2 0
v 0.388908714 2 -0.388908714
v -2.4041265e-08 2 -0.550000012
v -0.388908714 2 -0.388908714
v -0.550000012 2 4.808253e-08
v -0.388908684 2 0.388908803
v 6.55868471e-09 2 0.550000012
v 0.388908893 2 0.388908595
v 0.600000024 1.33333325 0
v 0.424264044 1.33333325 -0.424264044
v -2.62268323e-08 1.33333325 -0.600000024
v -0.424264044 1.33333325 -0.424264044
v -0.600000024 1.33333325 5.24536645e-08
v -0.424264014 1.33333325 0.424264133
v 7.15492821e-09 1.33333325 0.600000024
v 0.424264222 1.33333325 0.424263924
v 0.649999976 0.666666627 0
v 0.459619373 0.666666627 -0.459619373
v -2.84124013e-08 0.666666627 -0.649999976
v -0.459619373 0.666666627 -0.459619373
v -0.649999976 0.666666627 5.68248026e-08
v -0.459619284 0.666666627 0.459619462
v 7.75117215e-09 0.666666627 0.649999976
v 0.459619522 0.666666627 0.459619254
v 0.699999928 0 0
v 0.494974703 0 -0.494974703
v -3.05979704e-08 0 -0.699999928
v -0.494974703 0 -0.494974703
v -0.699999928 0 6.11959408e-08
v -0.494974613 0 0.494974762
v 8.34741609e-09 0 0.699999928
v 0.494974852 0 0.494974524
g 
f 1 9 10 2
f 2 10 11 3
f 3 11 12 4
f 4 12 13 5
f 5 13 14 6
f 6 14 15 7
f 7 15 16 8
f 8 16 9 1
f 9 17 18 10
f 10 18 19 11
f 11 19 20 12
f 12 20 21 13
f 13 21 22 14
f 14 22 23 15
f 15 23 24 16
f 16 24 17 9
f 17 25 26 18
f 18 26 27 19
f 19 27 28 20
f 20 28 29 21
f 21 29 30 22
f 22 30 31 23
f 23 31 32 24
f 24 32 25 17
