# File exported by Houdini 21.0.559 (www.sidefx.com)
# 176 points
# 616 vertices
# 154 primitives
# Bounds: [-0.999999881, 0, -0.989821315] to [0.999999881, 2, 0.989821374]
g 
v 0.550000012 2 0
v 0.527721167 2 -0.154952928
v 0.462689459 2 -0.297352463
v 0.360173374 2 -0.415662289
v 0.228478238 2 -0.500297606
v 0.0782731101 2 -0.544401824
v -0.0782732293 2 -0.544401824
v -0.228478327 2 -0.500297606
v -0.360173464 2 -0.415662229
v -0.462689489 2 -0.297352433
v -0.527721167 2 -0.154952809
v -0.550000012 2 1.79212762e-07
v -0.527721107 2 0.154953033
v -0.4626894 2 0.297352523
v -0.360173315 2 0.415662378
v -0.228478074 2 0.500297666
v -0.0782729983 2 0.544401824
v 0.0782732666 2 0.544401824
v 0.228478312 2 0.500297606
v 0.360173613 2 0.41566211
v 0.462689579 2 0.297352254
v 0.527721167 2 0.154952765
v 0.614285707 1.71428573 0
v 0.589402854 1.71428573 -0.173064306
v 0.516770005 1.71428573 -0.332107931
v 0.402271539 1.71428573 -0.464246154
v 0.255183458 1.71428573 -0.558773935
v 0.0874219164 1.71428573 -0.60803318
v -0.0874220431 1.71428573 -0.60803318
v -0.255183578 1.71428573 -0.558773935
v -0.402271658 1.71428573 -0.464246094
v -0.516770065 1.71428573 -0.332107902
v -0.589402854 1.71428573 -0.173064172
v -0.614285707 1.71428573 2.0015969e-07
v -0.589402795 1.71428573 0.173064411
v -0.516770005 1.71428573 0.332108021
v -0.402271479 1.71428573 0.464246273
v -0.25518328 1.71428573 0.558774054
v -0.0874217898 1.71428573 0.60803318
v 0.0874220878 1.71428573 0.60803318
v 0.255183578 1.71428573 0.558773935
v 0.402271807 1.71428573 0.464245975
v 0.516770184 1.71428573 0.332107723
v 0.589402854 1.71428573 0.173064113
v 0.678571403 1.42857146 0
v 0.651084483 1.42857146 -0.191175684
v 0.570850551 1.42857146 -0.3668634
v 0.444369733 1.42857146 -0.512830079
v 0.281888723 1.42857146 -0.617250264
v 0.0965707153 1.42857146 -0.671664536
v -0.0965708569 1.42857146 -0.671664536
v -0.281888843 1.42857146 -0.617250264
v -0.444369853 1.42857146 -0.512829959
v -0.570850611 1.42857146 -0.36686337
v -0.651084542 1.42857146 -0.191175535
v -0.678571403 1.42857146 2.21106632e-07
v -0.651084483 1.42857146 0.191175804
v -0.570850551 1.42857146 0.366863489
v -0.444369644 1.42857146 0.512830198
v -0.281888515 1.42857146 0.617250383
v -0.0965705737 1.42857146 0.671664536
v 0.096570909 1.42857146 0.671664536
v 0.281888813 1.42857146 0.617250264
v 0.444370002 1.42857146 0.51282984
v 0.57085073 1.42857146 0.366863161
v 0.651084542 1.42857146 0.191175476
v 0.742857099 1.14285707 0
v 0.712766171 1.14285707 -0.209287047
v 0.624931157 1.14285707 -0.401618868
v 0.486467898 1.14285707 -0.561413944
v 0.308593959 1.14285707 -0.675726593
v 0.105719522 1.14285707 -0.735295892
v -0.105719678 1.14285707 -0.735295892
v -0.308594078 1.14285707 -0.675726593
v -0.486468047 1.14285707 -0.561413825
v -0.624931216 1.14285707 -0.401618838
v -0.71276623 1.14285707 -0.209286898
v -0.742857099 1.14285707 2.42053574e-07
v -0.712766111 1.14285707 0.209287181
v -0.624931097 1.14285707 0.401618958
v -0.486467808 1.14285707 0.561414063
v -0.30859372 1.14285707 0.675726712
v -0.105719365 1.14285707 0.735295951
v 0.10571973 1.14285707 0.735295892
v 0.308594048 1.14285707 0.675726593
v 0.486468226 1.14285707 0.561413705
v 0.624931335 1.14285707 0.4016186
v 0.71276623 1.14285707 0.209286839
v 0.807142794 0.857142806 0
v 0.774447858 0.857142806 -0.227398425
v 0.679011703 0.857142806 -0.436374336
v 0.528566062 0.857142806 -0.609997809
v 0.335299194 0.857142806 -0.734202921
v 0.114868321 0.857142806 -0.798927248
v -0.114868492 0.857142806 -0.798927248
v -0.335299343 0.857142806 -0.734202862
v -0.528566241 0.857142806 -0.609997749
v -0.679011762 0.857142806 -0.436374307
v -0.774447918 0.857142806 -0.227398261
v -0.807142794 0.857142806 2.63000516e-07
v -0.774447799 0.857142806 0.227398574
v -0.679011643 0.857142806 0.436374456
v -0.528566003 0.857142806 0.609997988
v -0.335298955 0.857142806 0.734203041
v -0.114868157 0.857142806 0.798927307
v 0.114868551 0.857142806 0.798927248
v 0.335299313 0.857142806 0.734202862
v 0.52856642 0.857142806 0.609997571
v 0.679011881 0.857142806 0.436374068
v 0.774447918 0.857142806 0.227398187
v 0.87142849 0.571428537 0
v 0.836129546 0.571428537 -0.245509803
v 0.733092308 0.571428537 -0.471129835
v 0.570664227 0.571428537 -0.658581734
v 0.362004429 0.571428537 -0.79267925
v 0.124017127 0.571428537 -0.862558603
v -0.124017306 0.571428537 -0.862558603
v -0.362004578 0.571428537 -0.792679191
v -0.570664406 0.571428537 -0.658581614
v -0.733092308 0.571428537 -0.471129775
v -0.836129546 0.571428537 -0.245509624
v -0.87142849 0.571428537 2.83947458e-07
v -0.836129487 0.571428537 0.245509967
v -0.733092248 0.571428537 0.471129924
v -0.570664167 0.571428537 0.658581853
v -0.362004161 0.571428537 0.792679369
v -0.124016941 0.571428537 0.862558663
v 0.124017373 0.571428537 0.862558603
v 0.362004548 0.571428537 0.792679191
v 0.570664585 0.571428537 0.658581436
v 0.733092487 0.571428537 0.471129507
v 0.836129546 0.571428537 0.24550955
v 0.935714185 0.285714269 0
v 0.897811174 0.285714269 -0.263621181
v 0.787172854 0.285714269 -0.505885303
v 0.612762451 0.285714269 -0.707165599
v 0.388709664 0.285714269 -0.851155579
v 0.133165926 0.285714269 -0.926189959
v -0.133166119 0.285714269 -0.926189959
v -0.388709843 0.285714269 -0.851155519
v -0.61276257 0.285714269 -0.70716548
v -0.787172914 0.285714269 -0.505885243
v -0.897811234 0.285714269 -0.263620973
v -0.935714185 0.285714269 3.048944e-07
v -0.897811115 0.285714269 0.26362136
v -0.787172794 0.285714269 0.505885422
v -0.612762332 0.285714269 0.707165778
v -0.388709396 0.285714269 0.851155698
v -0.133165732 0.285714269 0.926190019
v 0.133166194 0.285714269 0.926189959
v 0.388709813 0.285714269 0.851155519
v 0.612762809 0.285714269 0.707165301
v 0.787173092 0.285714269 0.505884945
v 0.897811234 0.285714269 0.263620913
v 0.999999881 0 0
v 0.959492862 0 -0.281732559
v 0.8412534 0 -0.540640771
v 0.654860616 0 -0.755749464
v 0.4154149 0 -0.909631908
v 0.142314732 0 -0.989821315
v -0.142314941 0 -0.989821315
v -0.415415078 0 -0.909631848
v -0.654860795 0 -0.755749345
v -0.841253459 0 -0.540640712
v -0.959492922 0 -0.281732351
v -0.999999881 0 3.25841341e-07
v -0.959492803 0 0.281732738
v -0.84125334 0 0.540640891
v -0.654860497 0 0.755749643
v -0.415414602 0 0.909632027
v -0.142314523 0 0.989821374
v 0.142315015 0 0.989821315
v 0.415415049 0 0.909631848
v 0.654861033 0 0.755749166
v 0.841253638 0 0.540640414
v 0.959492922 0 0.281732261
g 
f 1 23 24 2
f 2 24 25 3
f 3 25 26 4
f 4 26 27 5
f 5 27 28 6
f 6 28 29 7
f 7 29 30 8
f 8 30 31 9
f 9 31 32 10
f 10 32 33 11
f 11 33 34 12
f 12 34 35 13
f 13 35 36 14
f 14 36 37 15
f 15 37 38 16
f 16 38 39 17
f 17 39 40 18
f 18 40 41 19
f 19 41 42 20
f 20 42 43 21
f 21 43 44 22
f 22 44 23 1
f 23 45 46 24
f 24 46 47 25
f 25 47 48 26
f 26 48 49 27
f 27 49 50 28
f 28 50 51 29
f 29 51 52 30
f 30 52 53 31
f 31 53 54 32
f 32 54 55 33
f 33 55 56 34
f 34 56 57 35
f 35 57 58 36
f 36 58 59 37
f 37 59 60 38
f 38 60 61 39
f 39 61 62 40
f 40 62 63 41
f 41 63 64 42
f 42 64 65 43
f 43 65 66 44
f 44 66 45 23
f 45 67 68 46
f 46 68 69 47
f 47 69 70 48
f 48 70 71 49
f 49 71 72 50
f 50 72 73 51
f 51 73 74 52
f 52 74 75 53
f 53 75 76 54
f 54 76 77 55
f 55 77 78 56
f 56 78 79 57
f 57 79 80 58
f 58 80 81 59
f 59 81 82 60
f 60 82 83 61
f 61 83 84 62
f 62 84 85 63
f 63 85 86 64
f 64 86 87 65
f 65 87 88 66
f 66 88 67 45
f 67 89 90 68
f 68 90 91 69
f 69 91 92 70
f 70 92 93 71
f 71 93 94 72
f 72 94 95 73
f 73 95 96 74
f 74 96 97 75
f 75 97 98 76
f 76 98 99 77
f 77 99 100 78
f 78 100 101 79
f 79 101 102 80
f 80 102 103 81
f 81 103 104 82
f 82 104 105 83
f 83 105 106 84
f 84 106 107 85
f 85 107 108 86
f 86 108 109 87
f 87 109 110 88
f 88 110 89 67
f 89 111 112 90
f 90 112 113 91
f 91 113 114 92
f 92 114 115 93
f 93 115 116 94
f 94 116 117 95
f 95 117 118 96
f 96 118 119 97
f 97 119 120 98
f 98 120 121 99
f 99 121 122 100
f 100 122 123 101
f 101 123 124 102
f 102 124 125 103
f 103 125 126 104
f 104 126 127 105
f 105 127 128 106
f 106 128 129 107
f 107 129 130 108
f 108 130 131 109
f 109 131 132 110
f 110 132 111 89
f 111 133 134 112
f 112 134 135 113
f 113 135 136 114
f 114 136 137 115
f 115 137 138 116
f 116 138 139 117
f 117 139 140 118
f 118 140 141 119
f 119 141 142 120
f 120 142 143 121
f 121 143 144 122
f 122 144 145 123
f 123 145 146 124
f 124 146 147 125
f 125 147 148 126
f 126 148 149 127
f 127 149 150 128
f 128 150 151 129
f 129 151 152 130
f 130 152 153 131
f 131 153 154 132
f 132 154 133 111
f 133 155 156 134
f 134 156 157 135
f 135 157 158 136
f 136 158 159 137
f 137 159 160 138
f 138 160 161 139
f 139 161 162 140
f 140 162 163 141
f 141 163 164 142
f 142 164 165 143
f 143 165 166 144
f 144 166 167 145
f 145 167 168 146
f 146 168 169 147
f 147 169 170 148
f 148 170 171 149
f 149 171 172 150
f 150 172 173 151
f 151 173 174 152
f 152 174 175 153
f 153 175 176 154
f 154 176 155 133
