# File exported by Houdini 21.0.559 (www.sidefx.com)
# 133 points
# 456 vertices
# 114 primitives
# Bounds: [-0.986361265, -1.1920929e-07, -0.996584415] to [0.99999994, 2, 0.996584415]
g 
v 0.550000012 2 0
v 0.520199478 2 -0.17858471
v 0.434027284 2 -0.337816983
v 0.300821513 2 -0.460441589
v 0.135017022 2 -0.533170164
v -0.0454186313 2 -0.548121452
v -0.220932469 2 -0.503675342
v -0.37250486 2 -0.404648155
v -0.483710557 2 -0.261771083
v -0.542498767 2 -0.0905270427
v -0.542498767 2 0.0905270129
v -0.483710557 2 0.261771053
v -0.37250489 2 0.404648155
v -0.220932394 2 0.503675401
v -0.0454186648 2 0.548121452
v 0.135016859 2 0.533170223
v 0.300821483 2 0.460441589
v 0.434027374 2 0.337816924
v 0.520199478 2 0.17858474
v 0.625 1.66666663 0
v 0.59113574 1.66666663 -0.202937156
v 0.493212819 1.66666663 -0.38388294
v 0.341842622 1.66666663 -0.523229063
v 0.153428435 1.66666663 -0.605875194
v -0.0516120791 1.66666663 -0.622865319
v -0.251059622 1.66666663 -0.57235831
v -0.423300982 1.66666663 -0.459827453
v -0.549671113 1.66666663 -0.297467142
v -0.616475821 1.66666663 -0.102871642
v -0.616475821 1.66666663 0.102871597
v -0.549671113 1.66666663 0.297467083
v -0.423301011 1.66666663 0.459827453
v -0.251059532 1.66666663 0.57235837
v -0.0516121164 1.66666663 0.622865319
v 0.153428257 1.66666663 0.605875194
v 0.341842592 1.66666663 0.523229063
v 0.493212909 1.66666663 0.38388285
v 0.59113574 1.66666663 0.202937201
v 0.699999988 1.33333325 0
v 0.662072062 1.33333325 -0.227289617
v 0.552398384 1.33333325 -0.429948866
v 0.38286373 1.33333325 -0.586016536
v 0.171839848 1.33333325 -0.678580165
v -0.0578055307 1.33333325 -0.697609127
v -0.281186789 1.33333325 -0.641041338
v -0.474097073 1.33333325 -0.515006721
v -0.61563164 1.33333325 -0.333163172
v -0.690452933 1.33333325 -0.115216233
v -0.690452933 1.33333325 0.115216188
v -0.61563164 1.33333325 0.333163142
v -0.474097133 1.33333325 0.515006721
v -0.28118667 1.33333325 0.641041338
v -0.0578055717 1.33333325 0.697609127
v 0.17183964 1.33333325 0.678580225
v 0.3828637 1.33333325 0.586016536
v 0.552398443 1.33333325 0.429948807
v 0.662072062 1.33333325 0.227289662
v 0.774999976 0.99999994 0
v 0.733008325 0.99999994 -0.251642078
v 0.611583889 0.99999994 -0.476014823
v 0.423884839 0.99999994 -0.648804009
v 0.190251261 0.99999994 -0.751285195
v -0.0639989749 0.99999994 -0.772352934
v -0.311313927 0.99999994 -0.709724307
v -0.524893165 0.99999994 -0.570186019
v -0.681592107 0.99999994 -0.368859231
v -0.764429986 0.99999994 -0.127560824
v -0.764429986 0.99999994 0.127560779
v -0.681592107 0.99999994 0.368859172
v -0.524893224 0.99999994 0.570186019
v -0.311313808 0.99999994 0.709724367
v -0.063999027 0.99999994 0.772352934
v 0.190251023 0.99999994 0.751285255
v 0.423884779 0.99999994 0.648804009
v 0.611584008 0.99999994 0.476014733
v 0.733008325 0.99999994 0.251642108
v 0.849999964 0.666666627 0
v 0.803944588 0.666666627 -0.275994539
v 0.670769393 0.666666627 -0.522080779
v 0.464905947 0.666666627 -0.711591482
v 0.208662659 0.666666627 -0.823990226
v -0.0701924264 0.666666627 -0.847096741
v -0.341441065 0.666666627 -0.778407276
v -0.575689316 0.666666627 -0.625365317
v -0.747552633 0.666666627 -0.404555291
v -0.838407099 0.666666627 -0.139905423
v -0.838407099 0.666666627 0.139905378
v -0.747552633 0.666666627 0.404555231
v -0.575689375 0.666666627 0.625365317
v -0.341440946 0.666666627 0.778407335
v -0.0701924786 0.666666627 0.847096741
v 0.208662406 0.666666627 0.823990285
v 0.464905888 0.666666627 0.711591482
v 0.670769513 0.666666627 0.52208066
v 0.803944588 0.666666627 0.275994569
v 0.924999952 0.333333254 0
v 0.87488091 0.333333254 -0.300347
v 0.729954958 0.333333254 -0.568146706
v 0.505927026 0.333333254 -0.774378955
v 0.227074072 0.333333254 -0.896695197
v -0.076385878 0.333333254 -0.921840608
v -0.371568233 0.333333254 -0.847090304
v -0.626485407 0.333333254 -0.680544555
v -0.81351316 0.333333254 -0.440251321
v -0.912384152 0.333333254 -0.152250022
v -0.912384152 0.333333254 0.152249962
v -0.81351316 0.333333254 0.440251291
v -0.626485467 0.333333254 0.680544555
v -0.371568084 0.333333254 0.847090364
v -0.0763859302 0.333333254 0.921840608
v 0.227073804 0.333333254 0.896695256
v 0.505927026 0.333333254 0.774378955
v 0.729955077 0.333333254 0.568146586
v 0.87488091 0.333333254 0.30034703
v 0.99999994 -1.1920929e-07 0
v 0.945817173 -1.1920929e-07 -0.324699432
v 0.789140463 -1.1920929e-07 -0.614212632
v 0.546948135 -1.1920929e-07 -0.837166429
v 0.245485485 -1.1920929e-07 -0.969400227
v -0.0825793222 -1.1920929e-07 -0.996584415
v -0.401695371 -1.1920929e-07 -0.915773273
v -0.677281499 -1.1920929e-07 -0.735723853
v -0.879473686 -1.1920929e-07 -0.47594738
v -0.986361265 -1.1920929e-07 -0.164594606
v -0.986361265 -1.1920929e-07 0.164594546
v -0.879473686 -1.1920929e-07 0.47594732
v -0.677281559 -1.1920929e-07 0.735723853
v -0.401695222 -1.1920929e-07 0.915773332
v -0.0825793818 -1.1920929e-07 0.996584415
v 0.245485187 -1.1920929e-07 0.969400287
v 0.546948075 -1.1920929e-07 0.837166429
v 0.789140582 -1.1920929e-07 0.614212513
v 0.945817173 -1.1920929e-07 0.324699491
g 
f 1 20 21 2
f 2 21 22 3
f 3 22 23 4
f 4 23 24 5
f 5 24 25 6
f 6 25 26 7
f 7 26 27 8
f 8 27 28 9
f 9 28 29 10
f 10 29 30 11
f 11 30 31 12
f 12 31 32 13
f 13 32 33 14
f 14 33 34 15
f 15 34 35 16
f 16 35 36 17
f 17 36 37 18
f 18 37 38 19
f 19 38 20 1
f 20 39 40 21
f 21 40 41 22
f 22 41 42 23
f 23 42 43 24
f 24 43 44 25
f 25 44 45 26
f 26 45 46 27
f 27 46 47 28
f 28 47 48 29
f 29 48 49 30
f 30 49 50 31
f 31 50 51 32
f 32 51 52 33
f 33 52 53 34
f 34 53 54 35
f 35 54 55 36
f 36 55 56 37
f 37 56 57 38
f 38 57 39 20
f 39 58 59 40
f 40 59 60 41
f 41 60 61 42
f 42 61 62 43
f 43 62 63 44
f 44 63 64 45
f 45 64 65 46
f 46 65 66 47
f 47 66 67 48
f 48 67 68 49
f 49 68 69 50
f 50 69 70 51
f 51 70 71 52
f 52 71 72 53
f 53 72 73 54
f 54 73 74 55
f 55 74 75 56
f 56 75 76 57
f 57 76 58 39
f 58 77 78 59
f 59 78 79 60
f 60 79 80 61
f 61 80 81 62
f 62 81 82 63
f 63 82 83 64
f 64 83 84 65
f 65 84 85 66
f 66 85 86 67
f 67 86 87 68
f 68 87 88 69
f 69 88 89 70
f 70 89 90 71
f 71 90 91 72
f 72 91 92 73
f 73 92 93 74
f 74 93 94 75
f 75 94 95 76
f 76 95 77 58
f 77 96 97 78
f 78 97 98 79
f 79 98 99 80
f 80 99 100 81
f 81 100 101 82
f 82 101 102 83
f 83 102 103 84
f 84 103 104 85
f 85 104 105 86
f 86 105 106 87
f 87 106 107 88
f 88 107 108 89
f 89 108 109 90
f 90 109 110 91
f 91 110 111 92
f 92 111 112 93
f 93 112 113 94
f 94 113 114 95
f 95 114 96 77
f 96 115 116 97
f 97 116 117 98
f 98 117 118 99
f 99 118 119 100
f 100 119 120 101
f 101 120 121 102
f 102 121 122 103
f 103 122 123 104
f 104 123 124 105
f 105 124 125 106
f 106 125 126 107
f 107 126 127 108
f 108 127 128 109
f 109 128 129 110
f 110 129 130 111
f 111 130 131 112
f 112 131 132 113
f 113 132 133 114
f 114 133 115 96
