# File exported by Houdini 21.0.559 (www.sidefx.com)
# 18 points
# 48 vertices
# 12 primitives
# Bounds: [-0.699999988, 0, -0.606217802] to [0.699999988, 2, 0.606217802]
g 
v 0.550000012 2 0
v 0.274999976 2 -0.476314008
v -0.275000066 2 -0.476313978
v -0.550000012 2 4.808253e-08
v -0.274999976 2 0.476314008
v 0.274999976 2 0.476314008
v 0.625 1 0
v 0.3125 1 -0.541265905
v -0.31250006 1 -0.541265905
v -0.625 1 5.46392371e-08
v -0.31249994 1 0.541265905
v 0.31249994 1 0.541265905
v 0.699999988 0 0
v 0.349999964 0 -0.606217802
v -0.350000024 0 -0.606217742
v -0.699999988 0 6.11959408e-08
v -0.349999934 0 0.606217802
v 0.349999934 0 0.606217802
g 
f 1 7 8 2
f 2 8 9 3
f 3 9 10 4
f 4 10 11 5
f 5 11 12 6
f 6 12 7 1
f 7 13 14 8
f 8 14 15 9
f 9 15 16 10
f 10 16 17 11
f 11 17 18 12
f 12 18 13 7
