# File exported by Houdini 21.0.559 (www.sidefx.com)
# 288 points
# 1056 vertices
# 264 primitives
# Bounds: [-0.700000048, 0, -0.700000048] to [0.700000048, 2, 0.700000048]
g 
v 0.550000012 2 0
v 0.531259239 2 -0.14235048
v 0.476313978 2 -0.275000006
v 0.388908714 2 -0.388908714
v 0.274999976 2 -0.476314008
v 0.142350495 2 -0.531259239
v -2.4041265e-08 2 -0.550000012
v -0.14235054 2 -0.531259239
v -0.275000066 2 -0.476313978
v -0.388908714 2 -0.388908714
v -0.476313978 2 -0.275000066
v -0.531259239 2 -0.14235042
v -0.550000012 2 4.808253e-08
v -0.531259239 2 0.142350495
v -0.476313919 2 0.275000125
v -0.388908684 2 0.388908803
v -0.274999976 2 0.476314008
v -0.14235045 2 0.531259239
v 6.55868471e-09 2 0.550000012
v 0.142350465 2 0.531259239
v 0.274999976 2 0.476314008
v 0.388908893 2 0.388908595
v 0.476314098 2 0.274999887
v 0.531259239 2 0.142350361
v 0.563636363 1.81818175 0
v 0.544430912 1.81818175 -0.145879835
v 0.488123447 1.81818175 -0.281818181
v 0.398551077 1.81818175 -0.398551077
v 0.281818181 1.81818175 -0.488123447
v 0.14587985 1.81818175 -0.544430912
v -2.46373286e-08 1.81818175 -0.563636363
v -0.145879894 1.81818175 -0.544430912
v -0.281818241 1.81818175 -0.488123447
v -0.398551077 1.81818175 -0.398551077
v -0.488123447 1.81818175 -0.281818241
v -0.544430971 1.81818175 -0.14587976
v -0.563636363 1.81818175 4.92746572e-08
v -0.544430912 1.81818175 0.14587985
v -0.488123357 1.81818175 0.2818183
v -0.398551047 1.81818175 0.398551166
v -0.281818151 1.81818175 0.488123447
v -0.14587979 1.81818175 0.544430971
v 6.72129685e-09 1.81818175 0.563636363
v 0.14587982 1.81818175 0.544430912
v 0.281818151 1.81818175 0.488123447
v 0.398551255 1.81818175 0.398550957
v 0.488123536 1.81818175 0.281818062
v 0.544430971 1.81818175 0.145879716
v 0.577272773 1.63636363 0
v 0.557602644 1.63636363 -0.14940919
v 0.499932885 1.63636363 -0.288636386
v 0.408193469 1.63636363 -0.408193469
v 0.288636357 1.63636363 -0.499932915
v 0.149409205 1.63636363 -0.557602644
v -2.5233394e-08 1.63636363 -0.577272773
v -0.149409249 1.63636363 -0.557602644
v -0.288636416 1.63636363 -0.499932885
v -0.408193469 1.63636363 -0.408193469
v -0.499932885 1.63636363 -0.288636416
v -0.557602704 1.63636363 -0.149409115
v -0.577272773 1.63636363 5.04667881e-08
v -0.557602644 1.63636363 0.149409205
v -0.499932796 1.63636363 0.288636476
v -0.408193409 1.63636363 0.408193529
v -0.288636327 1.63636363 0.499932915
v -0.149409145 1.63636363 0.557602704
v 6.883909e-09 1.63636363 0.577272773
v 0.14940916 1.63636363 0.557602644
v 0.288636327 1.63636363 0.499932915
v 0.408193618 1.63636363 0.40819332
v 0.499932945 1.63636363 0.288636237
v 0.557602704 1.63636363 0.149409056
v 0.590909123 1.4545455 0
v 0.570774376 1.4545455 -0.15293853
v 0.511742294 1.4545455 -0.295454562
v 0.417835832 1.4545455 -0.417835832
v 0.295454532 1.4545455 -0.511742353
v 0.15293856 1.4545455 -0.570774376
v -2.58294577e-08 1.4545455 -0.590909123
v -0.152938604 1.4545455 -0.570774376
v -0.295454592 1.4545455 -0.511742294
v -0.417835832 1.4545455 -0.417835832
v -0.511742294 1.4545455 -0.295454592
v -0.570774376 1.4545455 -0.15293847
v -0.590909123 1.4545455 5.16589154e-08
v -0.570774376 1.4545455 0.15293856
v -0.511742234 1.4545455 0.295454681
v -0.417835772 1.4545455 0.417835921
v -0.295454502 1.4545455 0.511742353
v -0.1529385 1.4545455 0.570774376
v 7.04652114e-09 1.4545455 0.590909123
v 0.152938515 1.4545455 0.570774376
v 0.295454502 1.4545455 0.511742353
v 0.417835981 1.4545455 0.417835712
v 0.511742413 1.4545455 0.295454413
v 0.570774376 1.4545455 0.152938411
v 0.604545474 1.27272725 0
v 0.583946109 1.27272725 -0.156467885
v 0.523551762 1.27272725 -0.302272737
v 0.427478194 1.27272725 -0.427478194
v 0.302272737 1.27272725 -0.523551762
v 0.1564679 1.27272725 -0.583946109
v -2.64255231e-08 1.27272725 -0.604545474
v -0.156467959 1.27272725 -0.583946109
v -0.302272797 1.27272725 -0.523551762
v -0.427478194 1.27272725 -0.427478194
v -0.523551762 1.27272725 -0.302272797
v -0.583946168 1.27272725 -0.15646781
v -0.604545474 1.27272725 5.28510462e-08
v -0.583946109 1.27272725 0.1564679
v -0.523551702 1.27272725 0.302272856
v -0.427478164 1.27272725 0.427478284
v -0.302272677 1.27272725 0.523551762
v -0.156467855 1.27272725 0.583946168
v 7.2091324e-09 1.27272725 0.604545474
v 0.15646787 1.27272725 0.583946109
v 0.302272677 1.27272725 0.523551762
v 0.427478373 1.27272725 0.427478075
v 0.523551881 1.27272725 0.302272588
v 0.583946168 1.27272725 0.156467766
v 0.618181884 1.090909 0
v 0.597117841 1.090909 -0.15999724
v 0.535361171 1.090909 -0.309090942
v 0.437120557 1.090909 -0.437120557
v 0.309090912 1.090909 -0.53536123
v 0.159997255 1.090909 -0.597117841
v -2.70215885e-08 1.090909 -0.618181884
v -0.159997314 1.090909 -0.597117841
v -0.309090972 1.090909 -0.535361171
v -0.437120557 1.090909 -0.437120557
v -0.535361171 1.090909 -0.309090972
v -0.597117841 1.090909 -0.159997165
v -0.618181884 1.090909 5.4043177e-08
v -0.597117841 1.090909 0.159997255
v -0.535361111 1.090909 0.309091032
v -0.437120527 1.090909 0.437120646
v -0.309090883 1.090909 0.53536123
v -0.15999721 1.090909 0.597117841
v 7.37174455e-09 1.090909 0.618181884
v 0.159997225 1.090909 0.597117841
v 0.309090883 1.090909 0.53536123
v 0.437120736 1.090909 0.437120438
v 0.53536129 1.090909 0.309090793
v 0.597117841 1.090909 0.159997106
v 0.631818235 0.909090877 0
v 0.610289514 0.909090877 -0.163526595
v 0.547170639 0.909090877 -0.315909117
v 0.446762919 0.909090877 -0.446762919
v 0.315909088 0.909090877 -0.547170699
v 0.16352661 0.909090877 -0.610289514
v -2.76176504e-08 0.909090877 -0.631818235
v -0.163526669 0.909090877 -0.610289514
v -0.315909147 0.909090877 -0.547170639
v -0.446762919 0.909090877 -0.446762919
v -0.547170639 0.909090877 -0.315909147
v -0.610289574 0.909090877 -0.163526505
v -0.631818235 0.909090877 5.52353008e-08
v -0.610289514 0.909090877 0.16352661
v -0.547170579 0.909090877 0.315909207
v -0.44676289 0.909090877 0.446763009
v -0.315909058 0.909090877 0.547170699
v -0.16352655 0.909090877 0.610289574
v 7.53435714e-09 0.909090877 0.631818235
v 0.16352658 0.909090877 0.610289514
v 0.315909058 0.909090877 0.547170699
v 0.446763098 0.909090877 0.4467628
v 0.547170699 0.909090877 0.315908968
v 0.610289574 0.909090877 0.163526461
v 0.645454586 0.727272689 0
v 0.623461246 0.727272689 -0.16705595
v 0.558980048 0.727272689 -0.322727293
v 0.456405312 0.727272689 -0.456405312
v 0.322727293 0.727272689 -0.558980107
v 0.167055964 0.727272689 -0.623461246
v -2.82137158e-08 0.727272689 -0.645454586
v -0.167056009 0.727272689 -0.623461246
v -0.322727352 0.727272689 -0.558980048
v -0.456405312 0.727272689 -0.456405312
v -0.558980048 0.727272689 -0.322727352
v -0.623461306 0.727272689 -0.167055875
v -0.645454586 0.727272689 5.64274316e-08
v -0.623461246 0.727272689 0.167055964
v -0.558979988 0.727272689 0.322727412
v -0.456405252 0.727272689 0.456405371
v -0.322727233 0.727272689 0.558980107
v -0.167055905 0.727272689 0.623461306
v 7.69696928e-09 0.727272689 0.645454586
v 0.16705592 0.727272689 0.623461246
v 0.322727233 0.727272689 0.558980107
v 0.456405461 0.727272689 0.456405163
v 0.558980227 0.727272689 0.322727144
v 0.623461306 0.727272689 0.167055801
v 0.659090996 0.545454502 0
v 0.636632979 0.545454502 -0.17058529
v 0.570789516 0.545454502 -0.329545498
v 0.466047674 0.545454502 -0.466047674
v 0.329545468 0.545454502 -0.570789576
v 0.170585319 0.545454502 -0.636632979
v -2.88097812e-08 0.545454502 -0.659090996
v -0.170585379 0.545454502 -0.636632979
v -0.329545528 0.545454502 -0.570789516
v -0.466047674 0.545454502 -0.466047674
v -0.570789516 0.545454502 -0.329545528
v -0.636633039 0.545454502 -0.170585215
v -0.659090996 0.545454502 5.76195625e-08
v -0.636632979 0.545454502 0.170585319
v -0.570789397 0.545454502 0.329545617
v -0.466047615 0.545454502 0.466047764
v -0.329545408 0.545454502 0.570789576
v -0.170585245 0.545454502 0.636633039
v 7.85958143e-09 0.545454502 0.659090996
v 0.170585275 0.545454502 0.636632979
v 0.329545408 0.545454502 0.570789576
v 0.466047823 0.545454502 0.466047555
v 0.570789635 0.545454502 0.329545319
v 0.636633039 0.545454502 0.170585155
v 0.672727346 0.363636315 0
v 0.649804711 0.363636315 -0.174114645
v 0.582598925 0.363636315 -0.336363673
v 0.475690037 0.363636315 -0.475690037
v 0.336363643 0.363636315 -0.582598984
v 0.174114659 0.363636315 -0.649804711
v -2.94058466e-08 0.363636315 -0.672727346
v -0.174114719 0.363636315 -0.649804711
v -0.336363703 0.363636315 -0.582598925
v -0.475690037 0.363636315 -0.475690037
v -0.582598925 0.363636315 -0.336363703
v -0.649804771 0.363636315 -0.17411457
v -0.672727346 0.363636315 5.88116933e-08
v -0.649804711 0.363636315 0.174114659
v -0.582598865 0.363636315 0.336363792
v -0.475689948 0.363636315 0.475690126
v -0.336363614 0.363636315 0.582598984
v -0.174114615 0.363636315 0.649804771
v 8.02219358e-09 0.363636315 0.672727346
v 0.17411463 0.363636315 0.649804711
v 0.336363614 0.363636315 0.582598984
v 0.475690216 0.363636315 0.475689918
v 0.582599044 0.363636315 0.336363494
v 0.649804771 0.363636315 0.17411451
v 0.686363697 0.181818128 0
v 0.662976384 0.181818128 -0.177643999
v 0.594408393 0.181818128 -0.343181849
v 0.4853324 0.181818128 -0.4853324
v 0.343181819 0.181818128 -0.594408453
v 0.177644014 0.181818128 -0.662976384
v -3.00019103e-08 0.181818128 -0.686363697
v -0.177644089 0.181818128 -0.662976384
v -0.343181908 0.181818128 -0.594408393
v -0.4853324 0.181818128 -0.4853324
v -0.594408393 0.181818128 -0.343181908
v -0.662976444 0.181818128 -0.17764391
v -0.686363697 0.181818128 6.00038206e-08
v -0.662976384 0.181818128 0.177644014
v -0.594408333 0.181818128 0.343181968
v -0.48533231 0.181818128 0.485332489
v -0.343181789 0.181818128 0.594408453
v -0.177643955 0.181818128 0.662976444
v 8.18480572e-09 0.181818128 0.686363697
v 0.177643985 0.181818128 0.662976384
v 0.343181789 0.181818128 0.594408453
v 0.485332578 0.181818128 0.485332251
v 0.594408512 0.181818128 0.3431817
v 0.662976444 0.181818128 0.17764385
v 0.700000048 0 0
v 0.676148117 0 -0.181173354
v 0.606217861 0 -0.350000024
v 0.494974762 0 -0.494974762
v 0.349999994 0 -0.606217861
v 0.181173369 0 -0.676148117
v -3.05979739e-08 0 -0.700000048
v -0.181173429 0 -0.676148117
v -0.350000083 0 -0.606217861
v -0.494974762 0 -0.494974762
v -0.606217861 0 -0.350000083
v -0.676148176 0 -0.181173265
v -0.700000048 0 6.11959479e-08
v -0.676148117 0 0.181173369
v -0.606217742 0 0.350000173
v -0.494974703 0 0.494974852
v -0.349999964 0 0.606217861
v -0.18117331 0 0.676148176
v 8.34741787e-09 0 0.700000048
v 0.181173325 0 0.676148117
v 0.349999964 0 0.606217861
v 0.494974941 0 0.494974613
v 0.60621798 0 0.349999875
v 0.676148176 0 0.181173205
g 
f 1 25 26 2
f 2 26 27 3
f 3 27 28 4
f 4 28 29 5
f 5 29 30 6
f 6 30 31 7
f 7 31 32 8
f 8 32 33 9
f 9 33 34 10
f 10 34 35 11
f 11 35 36 12
f 12 36 37 13
f 13 37 38 14
f 14 38 39 15
f 15 39 40 16
f 16 40 41 17
f 17 41 42 18
f 18 42 43 19
f 19 43 44 20
f 20 44 45 21
f 21 45 46 22
f 22 46 47 23
f 23 47 48 24
f 24 48 25 1
f 25 49 50 26
f 26 50 51 27
f 27 51 52 28
f 28 52 53 29
f 29 53 54 30
f 30 54 55 31
f 31 55 56 32
f 32 56 57 33
f 33 57 58 34
f 34 58 59 35
f 35 59 60 36
f 36 60 61 37
f 37 61 62 38
f 38 62 63 39
f 39 63 64 40
f 40 64 65 41
f 41 65 66 42
f 42 66 67 43
f 43 67 68 44
f 44 68 69 45
f 45 69 70 46
f 46 70 71 47
f 47 71 72 48
f 48 72 49 25
f 49 73 74 50
f 50 74 75 51
f 51 75 76 52
f 52 76 77 53
f 53 77 78 54
f 54 78 79 55
f 55 79 80 56
f 56 80 81 57
f 57 81 82 58
f 58 82 83 59
f 59 83 84 60
f 60 84 85 61
f 61 85 86 62
f 62 86 87 63
f 63 87 88 64
f 64 88 89 65
f 65 89 90 66
f 66 90 91 67
f 67 91 92 68
f 68 92 93 69
f 69 93 94 70
f 70 94 95 71
f 71 95 96 72
f 72 96 73 49
f 73 97 98 74
f 74 98 99 75
f 75 99 100 76
f 76 100 101 77
f 77 101 102 78
f 78 102 103 79
f 79 103 104 80
f 80 104 105 81
f 81 105 106 82
f 82 106 107 83
f 83 107 108 84
f 84 108 109 85
f 85 109 110 86
f 86 110 111 87
f 87 111 112 88
f 88 112 113 89
f 89 113 114 90
f 90 114 115 91
f 91 115 116 92
f 92 116 117 93
f 93 117 118 94
f 94 118 119 95
f 95 119 120 96
f 96 120 97 73
f 97 121 122 98
f 98 122 123 99
f 99 123 124 100
f 100 124 125 101
f 101 125 126 102
f 102 126 127 103
f 103 127 128 104
f 104 128 129 105
f 105 129 130 106
f 106 130 131 107
f 107 131 132 108
f 108 132 133 109
f 109 133 134 110
f 110 134 135 111
f 111 135 136 112
f 112 136 137 113
f 113 137 138 114
f 114 138 139 115
f 115 139 140 116
f 116 140 141 117
f 117 141 142 118
f 118 142 143 119
f 119 143 144 120
f 120 144 121 97
f 121 145 146 122
f 122 146 147 123
f 123 147 148 124
f 124 148 149 125
f 125 149 150 126
f 126 150 151 127
f 127 151 152 128
f 128 152 153 129
f 129 153 154 130
f 130 154 155 131
f 131 155 156 132
f 132 156 157 133
f 133 157 158 134
f 134 158 159 135
f 135 159 160 136
f 136 160 161 137
f 137 161 162 138
f 138 162 163 139
f 139 163 164 140
f 140 164 165 141
f 141 165 166 142
f 142 166 167 143
f 143 167 168 144
f 144 168 145 121
f 145 169 170 146
f 146 170 171 147
f 147 171 172 148
f 148 172 173 149
f 149 173 174 150
f 150 174 175 151
f 151 175 176 152
f 152 176 177 153
f 153 177 178 154
f 154 178 179 155
f 155 179 180 156
f 156 180 181 157
f 157 181 182 158
f 158 182 183 159
f 159 183 184 160
f 160 184 185 161
f 161 185 186 162
f 162 186 187 163
f 163 187 188 164
f 164 188 189 165
f 165 189 190 166
f 166 190 191 167
f 167 191 192 168
f 168 192 169 145
f 169 193 194 170
f 170 194 195 171
f 171 195 196 172
f 172 196 197 173
f 173 197 198 174
f 174 198 199 175
f 175 199 200 176
f 176 200 201 177
f 177 201 202 178
f 178 202 203 179
f 179 203 204 180
f 180 204 205 181
f 181 205 206 182
f 182 206 207 183
f 183 207 208 184
f 184 208 209 185
f 185 209 210 186
f 186 210 211 187
f 187 211 212 188
f 188 212 213 189
f 189 213 214 190
f 190 214 215 191
f 191 215 216 192
f 192 216 193 169
f 193 217 218 194
f 194 218 219 195
f 195 219 220 196
f 196 220 221 197
f 197 221 222 198
f 198 222 223 199
f 199 223 224 200
f 200 224 225 201
f 201 225 226 202
f 202 226 227 203
f 203 227 228 204
f 204 228 229 205
f 205 229 230 206
f 206 230 231 207
f 207 231 232 208
f 208 232 233 209
f 209 233 234 210
f 210 234 235 211
f 211 235 236 212
f 212 236 237 213
f 213 237 238 214
f 214 238 239 215
f 215 239 240 216
f 216 240 217 193
f 217 241 242 218
f 218 242 243 219
f 219 243 244 220
f 220 244 245 221
f 221 245 246 222
f 222 246 247 223
f 223 247 248 224
f 224 248 249 225
f 225 249 250 226
f 226 250 251 227
f 227 251 252 228
f 228 252 253 229
f 229 253 254 230
f 230 254 255 231
f 231 255 256 232
f 232 256 257 233
f 233 257 258 234
f 234 258 259 235
f 235 259 260 236
f 236 260 261 237
f 237 261 262 238
f 238 262 263 239
f 239 263 264 240
f 240 264 241 217
f 241 265 266 242
f 242 266 267 243
f 243 267 268 244
f 244 268 269 245
f 245 269 270 246
f 246 270 271 247
f 247 271 272 248
f 248 272 273 249
f 249 273 274 250
f 250 274 275 251
f 251 275 276 252
f 252 276 277 253
f 253 277 278 254
f 254 278 279 255
f 255 279 280 256
f 256 280 281 257
f 257 281 282 258
f 258 282 283 259
f 259 283 284 260
f 260 284 285 261
f 261 285 286 262
f 262 286 287 263
f 263 287 288 264
f 264 288 265 241
