# File exported by Houdini 21.0.559 (www.sidefx.com)
# 72 points
# 240 vertices
# 60 primitives
# Bounds: [-0.699999928, 0, -0.699999928] to [0.699999928, 2, 0.699999928]
g 
v 0.550000012 2 0
v 0.476313978 2 -0.275000006
v 0.274999976 2 -0.476314008
v -2.4041265e-08 2 -0.550000012
v -0.275000066 2 -0.476313978
v -0.476313978 2 -0.275000066
v -0.550000012 2 4.808253e-08
v -0.476313919 2 0.275000125
v -0.274999976 2 0.476314008
v 6.55868471e-09 2 0.550000012
v 0.274999976 2 0.476314008
v 0.476314098 2 0.274999887
v 0.579999983 1.60000002 0
v 0.502294719 1.60000002 -0.289999992
v 0.289999992 1.60000002 -0.502294719
v -2.53526053e-08 1.60000002 -0.579999983
v -0.290000051 1.60000002 -0.502294719
v -0.502294719 1.60000002 -0.290000051
v -0.579999983 1.60000002 5.07052107e-08
v -0.50229466 1.60000002 0.290000111
v -0.289999962 1.60000002 0.502294719
v 6.91643054e-09 1.60000002 0.579999983
v 0.289999962 1.60000002 0.502294719
v 0.502294838 1.60000002 0.289999843
v 0.609999955 1.20000005 0
v 0.52827549 1.20000005 -0.304999977
v 0.304999977 1.20000005 -0.52827549
v -2.66639457e-08 1.20000005 -0.609999955
v -0.305000037 1.20000005 -0.52827549
v -0.52827549 1.20000005 -0.305000037
v -0.609999955 1.20000005 5.33278914e-08
v -0.528275371 1.20000005 0.305000097
v -0.304999918 1.20000005 0.52827549
v 7.27417682e-09 1.20000005 0.609999955
v 0.304999918 1.20000005 0.52827549
v 0.528275549 1.20000005 0.304999828
v 0.639999926 0.800000012 0
v 0.554256201 0.800000012 -0.319999963
v 0.319999963 0.800000012 -0.55425626
v -2.79752879e-08 0.800000012 -0.639999926
v -0.320000023 0.800000012 -0.554256201
v -0.554256201 0.800000012 -0.320000023
v -0.639999926 0.800000012 5.59505757e-08
v -0.554256141 0.800000012 0.320000082
v -0.319999903 0.800000012 0.55425626
v 7.63192265e-09 0.800000012 0.639999926
v 0.319999903 0.800000012 0.55425626
v 0.55425632 0.800000012 0.319999844
v 0.669999957 0.399999976 0
v 0.580236971 0.399999976 -0.334999979
v 0.334999949 0.399999976 -0.580236971
v -2.92866265e-08 0.399999976 -0.669999957
v -0.335000008 0.399999976 -0.580236971
v -0.580236971 0.399999976 -0.335000008
v -0.669999957 0.399999976 5.85732529e-08
v -0.580236852 0.399999976 0.335000098
v -0.334999889 0.399999976 0.580236971
v 7.98966937e-09 0.399999976 0.669999957
v 0.334999889 0.399999976 0.580236971
v 0.580237091 0.399999976 0.3349998
v 0.699999928 0 0
v 0.606217682 0 -0.349999964
v 0.349999934 0 -0.606217742
v -3.05979704e-08 0 -0.699999928
v -0.349999994 0 -0.606217682
v -0.606217682 0 -0.349999994
v -0.699999928 0 6.11959408e-08
v -0.606217623 0 0.350000083
v -0.349999905 0 0.606217742
v 8.3474152e-09 0 0.699999928
v 0.349999905 0 0.606217742
v 0.606217802 0 0.349999785
g 
f 1 13 14 2
f 2 14 15 3
f 3 15 16 4
f 4 16 17 5
f 5 17 18 6
f 6 18 19 7
f 7 19 20 8
f 8 20 21 9
f 9 21 22 10
f 10 22 23 11
f 11 23 24 12
f 12 24 13 1
f 13 25 26 14
f 14 26 27 15
f 15 27 28 16
f 16 28 29 17
f 17 29 30 18
f 18 30 31 19
f 19 31 32 20
f 20 32 33 21
f 21 33 34 22
f 22 34 35 23
f 23 35 36 24
f 24 36 25 13
f 25 37 38 26
f 26 38 39 27
f 27 39 40 28
f 28 40 41 29
f 29 41 42 30
f 30 42 43 31
f 31 43 44 32
f 32 44 45 33
f 33 45 46 34
f 34 46 47 35
f 35 47 48 36
f 36 48 37 25
f 37 49 50 38
f 38 50 51 39
f 39 51 52 40
f 40 52 53 41
f 41 53 54 42
f 42 54 55 43
f 43 55 56 44
f 44 56 57 45
f 45 57 58 46
f 46 58 59 47
f 47 59 60 48
f 48 60 49 37
f 49 61 62 50
f 50 62 63 51
f 51 63 64 52
f 52 64 65 53
f 53 65 66 54
f 54 66 67 55
f 55 67 68 56
f 56 68 69 57
f 57 69 70 58
f 58 70 71 59
f 59 71 72 60
f 60 72 61 49
