# File exported by Houdini 21.0.559 (www.sidefx.com)
# 151 points
# 744 vertices
# 248 primitives
# Bounds: [-0.360501707, 0.897343338, -0.188342273] to [0.370337099, 1.51222217, 0.188636258]
g 
v -0.0334462896 0.912564814 0.151165783
v -0.0672274232 0.90931648 0.126936719
v 0.0207621902 0.964230537 0.18704766
v -0.00414875755 0.916000307 0.18024224
v -0.10314256 0.90657258 0.105449602
v -0.134625405 0.904328644 0.0779201984
v -0.154508054 0.902331948 0.0408861749
v -0.152954191 0.943295717 0.039236635
v -0.161825538 0.899817228 -0.000769098289
v -0.158248201 1.03233027 0.0199669637
v -0.163347244 0.958777606 -0.0512843877
v -0.0516640618 1.01052463 0.138587013
v -0.125597164 0.983882904 0.0920360759
v -0.120929673 1.08424175 0.102894008
v -0.0563162193 1.13069808 0.135215014
v -0.142154187 1.25682068 0.0815045014
v -0.10977947 1.33840942 0.117465094
v -0.08458969 1.23371506 0.131704718
v -0.163567975 1.15179229 0.0369197503
v -0.118671566 1.1759063 0.106295764
v 0.170154169 1.17827487 -0.00903871842
v 0.183649853 1.21013105 -0.0817192346
v 0.161628798 1.08120179 0.00714025833
v 0.169021174 1.09801161 -0.0754892826
v 0.172185719 0.981399894 -0.0245349519
v 0.170319229 0.911497474 0.000470437109
v 0.160202816 0.911756814 0.038357731
v 0.168583065 0.910876393 -0.0387006924
v 0.158118665 1.24613857 0.0463266931
v 0.136869207 1.15688455 0.0663936138
v 0.138105035 1.3104707 0.0909548178
v 0.0942423493 1.04486775 0.10789559
v 0.138439178 0.912026584 0.0710967183
v 0.140688971 1.08124948 0.0716561228
v 0.149407014 0.987900674 0.0620502904
v 0.0707657635 0.971621394 0.123859882
v 0.106514379 0.912795126 0.0949843153
v 0.0754652694 0.914186537 0.120521426
v -0.162798896 1.46424425 0.022531705
v -0.158399284 1.36424541 0.0763355568
v -0.233691812 1.42243171 0.0307393298
v -0.206566006 1.32152534 0.066281639
v -0.100925162 1.50238109 -0.0218464099
v -0.0820790604 1.48795497 0.0192665812
v 0.146988228 1.47683048 0.00485428609
v 0.148397714 1.47931027 -0.0945388824
v 0.203442678 1.46883845 -0.0404790007
v 0.212384224 1.43984008 0.0116454326
v 0.260320634 1.40194309 0.00811665133
v 0.251230091 1.42279971 -0.098992154
v 0.156415597 1.38663054 0.0644312873
v -0.171738803 1.25591123 0.0180677958
v 0.0983436704 1.23378408 0.112979166
v 0.074899815 1.34952331 0.114242166
v 0.0152610149 1.18459868 0.152963415
v -0.00439212611 1.29395664 0.140209422
v 0.0861278027 1.12693048 0.114493899
v 0.0223643966 1.06512332 0.170715749
v 0.0546966866 0.916238844 0.155135319
v 0.0745037943 1.43485916 0.0704791993
v 0.0647065863 1.50408792 -0.0226886254
v 0.0567249656 1.51222217 -0.0695332289
v -0.0905999318 1.43367338 0.072431013
v -0.0199882686 1.39577365 0.109917454
v -0.0539740063 1.47578061 0.0423949845
v -0.0248959642 1.46992993 0.0504097827
v 0.00938130543 1.47083795 0.0461590774
v 0.184133485 1.36372638 -0.130351529
v 0.151413679 1.16890132 -0.122956775
v 0.113361284 1.08176565 -0.140309826
v 0.143404007 0.97268039 -0.10253042
v 0.155009806 0.90979439 -0.0756917
v 0.132114694 0.908710122 -0.108615302
v 0.117066622 1.24327195 -0.15403907
v 0.159139678 1.30490172 -0.126625985
v 0.0765940547 1.16773283 -0.175294414
v 0.0902129859 1.34509611 -0.174839824
v 0.0593097135 1.08483875 -0.185482264
v 0.065934591 0.98253876 -0.183041662
v -0.137438715 0.897343338 -0.0816399381
v -0.109492131 0.898853004 -0.114315636
v -0.155696362 0.897670329 -0.0428888686
v -0.0760340616 0.901506066 -0.14148578
v -0.146052167 1.00349677 -0.108934283
v -0.0686831027 0.979119956 -0.155635685
v -0.174326509 1.07132196 -0.051514782
v -0.162160411 1.10985994 -0.113248974
v -0.156487852 1.20423055 -0.13250953
v -0.189073533 1.17074239 -0.0546544157
v -0.0967503935 1.09790754 -0.152907357
v -0.120701775 1.31863129 -0.156555057
v -0.19124338 1.30914855 -0.0968373865
v -0.181427523 1.45922315 -0.0785867572
v -0.305287063 1.28848839 -0.0589272939
v -0.247687727 1.26801014 -0.0795425475
v -0.1688191 1.40195334 -0.12384928
v 0.192438692 1.28168273 -0.0513466522
v 0.255730033 1.32325649 -0.138348073
v 0.19700706 1.42639232 -0.133568063
v 0.100417197 1.4364444 -0.151814744
v -0.0414215699 0.90459156 -0.167142019
v -0.00835359283 0.957751393 -0.185709208
v -0.0643227398 1.22139299 -0.163810581
v 0.0104162637 1.14311337 -0.186101869
v 0.0355185308 1.25863266 -0.184915662
v 0.0017593326 1.04289889 -0.187184379
v -0.00418017665 0.906632245 -0.188342273
v 0.0374750495 0.907259822 -0.187629864
v 0.0734320506 0.907615662 -0.166073188
v -0.0442250893 1.32065547 -0.168290094
v -0.0885892063 1.425506 -0.14740546
v 0.0127791585 1.38191497 -0.173630401
v -0.00267453957 1.48083389 -0.134901509
v -0.250311494 1.22954249 0.0903995633
v -0.199775055 1.21691632 -0.0340040289
v -0.225158334 1.17747605 0.0370368809
v -0.260922402 1.14084303 0.0433724672
v -0.268651694 1.15107846 0.0845195651
v -0.265066534 1.13409531 0.00169723469
v -0.294567168 1.16646862 0.112003908
v -0.284462273 1.32074308 0.0354139581
v -0.274802327 1.37220275 -0.072551325
v -0.331693679 1.22846997 0.0451654047
v -0.329036385 1.1725179 0.0872990489
v -0.35407722 1.17244112 0.051926259
v -0.360501707 1.16545677 0.0106569175
v -0.346397072 1.15322363 -0.027365189
v -0.312729716 1.20371342 -0.0627934784
v -0.317276895 1.1389941 -0.0525130071
v -0.282384217 1.13130867 -0.0360203944
v 0.295662135 1.2762152 0.015819462
v 0.303707808 1.23967087 -0.0333124697
v 0.2961905 1.2351191 -0.072690405
v 0.301170319 1.24116707 -0.113288619
v 0.321219325 1.35538709 -0.0903946459
v 0.324276865 1.26484871 -0.137616336
v 0.35258013 1.29190683 -0.122362152
v 0.368927389 1.30660617 -0.0857950747
v 0.370337099 1.30679166 -0.0434236266
v 0.360366046 1.29558992 -0.00368951238
v 0.320670605 1.33510208 -0.00350321806
v 0.193404123 1.34888864 0.0200483799
v 0.341968983 1.27491486 0.0262358319
v 0.319380611 1.25222361 0.00211118441
v -0.00443704054 1.50848615 -0.109815575
v -0.0466011278 1.50752175 -0.107211165
v 0.0277024563 1.51102042 -0.100091644
v 0.0329690091 0.917943895 0.188636258
v 0.104482539 0.908065736 -0.138621852
v 0.0345128626 1.47785199 0.0332360975
v -0.0853390694 1.50855803 -0.0857401937
g 
f 3 1 4
f 6 8 7
f 8 6 5
f 8 9 7
f 9 8 11
f 8 13 10
f 13 8 5
f 11 8 10
f 2 13 5
f 13 2 12
f 1 12 2
f 14 10 13
f 14 13 12
f 14 12 15
f 20 14 15
f 14 19 10
f 14 20 19
f 52 16 40
f 17 16 18
f 19 16 52
f 16 20 18
f 20 16 19
f 52 115 89
f 52 89 19
f 24 21 23
f 22 21 24
f 23 30 34
f 23 25 24
f 23 35 25
f 35 23 34
f 27 25 35
f 25 27 26
f 25 26 28
f 21 29 30
f 30 53 57
f 53 30 29
f 29 31 53
f 21 97 29
f 35 34 32
f 33 27 35
f 57 34 30
f 30 23 21
f 57 32 34
f 36 35 32
f 37 33 35
f 37 36 38
f 36 37 35
f 39 41 40
f 63 39 40
f 42 40 41
f 40 17 63
f 93 39 43
f 39 44 43
f 61 46 62
f 46 61 45
f 46 45 47
f 48 47 45
f 47 99 46
f 50 47 49
f 45 51 48
f 60 45 150
f 51 45 60
f 40 16 17
f 42 52 40
f 53 31 54
f 54 31 51
f 48 51 142
f 29 142 31
f 18 55 56
f 15 55 18
f 15 58 55
f 58 15 12
f 12 3 58
f 3 12 1
f 55 58 57
f 55 57 53
f 58 32 57
f 58 36 32
f 36 58 3
f 36 59 38
f 59 36 3
f 150 45 61
f 60 64 54
f 64 60 67
f 51 60 54
f 63 64 66
f 63 17 64
f 63 44 39
f 44 63 65
f 63 66 65
f 66 64 67
f 97 21 22
f 68 97 75
f 97 22 75
f 22 24 69
f 24 25 71
f 71 28 72
f 28 71 25
f 73 71 72
f 69 74 22
f 74 77 75
f 77 74 105
f 70 24 71
f 74 69 76
f 76 105 74
f 70 78 76
f 70 69 24
f 69 70 76
f 79 70 71
f 70 79 78
f 78 79 106
f 81 80 84
f 11 80 82
f 11 82 9
f 11 84 80
f 83 81 85
f 86 84 11
f 84 86 87
f 84 90 85
f 90 84 87
f 11 10 86
f 87 89 88
f 89 87 86
f 86 19 89
f 19 86 10
f 87 88 90
f 91 88 92
f 115 92 88
f 89 115 88
f 93 41 39
f 41 93 122
f 122 93 96
f 122 95 94
f 95 122 92
f 96 92 122
f 92 96 91
f 98 97 68
f 68 100 99
f 100 68 77
f 22 74 75
f 77 68 75
f 68 99 98
f 99 100 46
f 99 47 50
f 85 90 106
f 101 85 102
f 103 105 104
f 105 103 110
f 103 91 110
f 91 103 88
f 103 90 88
f 106 90 104
f 104 90 103
f 101 102 107
f 104 105 76
f 78 104 76
f 78 106 104
f 106 79 102
f 106 102 85
f 102 108 107
f 108 102 79
f 79 109 108
f 96 111 91
f 111 96 93
f 111 93 151
f 93 43 151
f 110 112 105
f 112 110 111
f 110 91 111
f 113 111 151
f 77 105 112
f 100 112 113
f 112 100 77
f 42 114 52
f 52 116 115
f 116 52 114
f 130 115 119
f 116 118 117
f 118 116 114
f 116 119 115
f 119 116 117
f 114 120 118
f 42 41 121
f 121 41 122
f 123 94 128
f 94 123 121
f 124 123 125
f 123 126 125
f 126 123 128
f 122 94 121
f 128 127 126
f 128 94 95
f 127 128 129
f 130 128 115
f 128 130 129
f 115 95 92
f 95 115 128
f 133 132 131
f 133 131 97
f 134 133 98
f 98 133 97
f 135 136 98
f 98 50 135
f 50 98 99
f 137 136 135
f 138 137 135
f 134 98 136
f 50 49 135
f 49 47 48
f 138 141 139
f 139 141 140
f 141 138 135
f 49 142 141
f 142 49 48
f 141 142 131
f 131 144 143
f 131 140 141
f 140 131 143
f 131 142 97
f 131 132 144
f 145 113 146
f 113 145 147
f 62 113 147
f 56 17 18
f 17 56 64
f 56 54 64
f 56 53 54
f 53 56 55
f 20 15 18
f 97 142 29
f 3 4 148
f 3 148 59
f 71 149 79
f 149 71 73
f 149 109 79
f 100 62 46
f 62 100 113
f 85 101 83
f 111 113 112
f 114 121 123
f 121 114 42
f 123 120 114
f 120 123 124
f 135 49 141
f 150 67 60
f 151 146 113
f 31 142 51
f 85 81 84
