# File exported by Houdini 21.0.559 (www.sidefx.com)
# 330 points
# 1818 vertices
# 606 primitives
# Bounds: [-0.360501707, 0.897343338, -0.193064913] to [0.370337099, 1.51222217, 0.188636258]
g 
v -0.0334462896 0.912564814 0.151165783
v -0.0672274232 0.90931648 0.126936719
v -0.07135313 0.953398287 0.125017628
v 0.000573919853 0.966471016 0.179419115
v -0.00414875755 0.916000307 0.18024224
v -0.10314256 0.90657258 0.105449602
v -0.106424719 0.95161283 0.104714558
v -0.134625405 0.904328644 0.0779201984
v -0.135736629 0.935944676 0.0756796747
v -0.154508054 0.902331948 0.0408861749
v -0.155178696 0.954797983 0.0305367019
v -0.161825538 0.899817228 -0.000769098289
v -0.163027376 0.941239655 -0.0395442247
v -0.135518834 0.98599726 0.076400809
v -0.162288964 0.991888046 -0.0138107501
v -0.0486696474 0.984127164 0.139118165
v -0.101393327 0.998065054 0.110482246
v -0.0252110213 1.01588726 0.154124841
v -0.0736638606 1.04733551 0.126809761
v -0.0250156317 1.06444144 0.151791438
v -0.153054416 1.017838 0.0328356959
v -0.129222542 1.04915941 0.0902400762
v -0.167462304 1.04262233 -0.023622416
v -0.141392589 1.11148822 0.0735113323
v -0.112211801 1.09737742 0.109000474
v -0.0663419738 1.11192954 0.132020593
v -0.159564286 1.076244 0.0287185106
v -0.017433105 1.12182987 0.15162313
v -0.113907322 1.16229057 0.111052595
v -0.0514891073 1.17456782 0.136737809
v -0.166797385 1.13318336 0.0223551057
v -0.148966193 1.16083086 0.0643262714
v -0.145984322 1.25625646 0.073426865
v -0.162975088 1.23354435 0.0341800824
v -0.116942368 1.34388423 0.110351935
v -0.116883293 1.27744865 0.111291781
v -0.146306291 1.20347345 0.0723682344
v -0.168110743 1.18756628 0.0238501783
v -0.118958563 1.22550404 0.107544467
v 0.169913739 1.14131403 -0.0241622422
v 0.171425402 1.10510838 -0.0691185966
v 0.181064695 1.2012589 -0.0410580225
v 0.152653977 1.11591458 0.035476014
v 0.160590261 1.18232238 0.0183847882
v 0.168041617 1.06999218 -0.0190285891
v 0.157513678 1.0553894 0.031417951
v 0.168853924 1.05453432 -0.0659282953
v 0.169845283 1.00492132 -0.054818444
v 0.166193619 1.01243889 0.00584060978
v 0.170319229 0.911497474 0.000470437109
v 0.160202816 0.911756814 0.038357731
v 0.161423162 0.959842265 0.0306777805
v 0.171883941 0.957796156 -0.0238833632
v 0.168583065 0.910876393 -0.0387006924
v 0.142877504 1.21178329 0.0609802753
v 0.13736251 1.16241539 0.0658156872
v 0.108915254 1.17011631 0.102718107
v 0.108615071 1.2330929 0.107215248
v 0.147294581 1.26954007 0.0724129379
v 0.174210414 1.24627197 0.0096643893
v 0.138414606 1.06247365 0.074165307
v 0.148837104 1.00916743 0.0606764667
v 0.138439178 0.912026584 0.0710967183
v 0.141671047 0.96037209 0.0692701414
v 0.124989331 1.11694372 0.0896573812
v 0.0952259153 1.06515479 0.10713286
v 0.11884962 1.01255226 0.0910436958
v 0.0762590542 1.01387584 0.117726788
v 0.10898713 0.962450624 0.0955631882
v 0.0711127818 0.95854193 0.124443397
v 0.106514379 0.912795126 0.0949843153
v 0.0754652694 0.914186537 0.120521426
v -0.193072319 1.44699883 0.0265595671
v -0.151901603 1.38188052 0.071177192
v -0.19711487 1.39814651 0.0554629713
v -0.232369706 1.43942583 -0.00749120815
v -0.150325313 1.46431303 0.0218878128
v -0.0825835243 1.42560232 0.0822699368
v -0.152511016 1.32153165 0.0746163726
v -0.188012213 1.32828617 0.0592182688
v -0.0830593705 1.36490142 0.119014546
v -0.129863158 1.48838055 -0.0228176676
v -0.183091626 1.47000253 -0.0300614554
v -0.143033788 1.46908391 -0.0915424898
v -0.107848816 1.4679004 0.0336211175
v -0.106015205 1.49316823 -0.0932233557
v -0.100925162 1.50238109 -0.0218464099
v -0.0820790604 1.48795497 0.0192665812
v 0.120751791 1.49231279 -0.0308809578
v 0.171897352 1.48337007 -0.0588428602
v 0.162716687 1.47187054 0.00251953164
v 0.084952265 1.49641216 -0.0753393695
v 0.127285242 1.48698556 -0.0793778822
v 0.101172611 1.47363722 0.0193526652
v 0.215379 1.45892954 -0.0209134407
v 0.207787752 1.46134937 -0.0798970163
v 0.198193312 1.42987609 0.021898929
v 0.140442669 1.43994999 0.0461420938
v 0.249636114 1.43030322 -0.0416712761
v 0.236702472 1.40898371 0.0143057816
v 0.246768236 1.42575026 -0.0873714089
v 0.172802091 1.37661362 0.0487669185
v 0.144508958 1.32919896 0.0831041262
v 0.117440157 1.38909948 0.0860460028
v -0.17091085 1.27550662 0.0276189409
v 0.114026017 1.28865552 0.106104821
v 0.09342172 1.33215249 0.110321082
v -0.035337761 1.2443676 0.140278518
v 0.00687314244 1.23213732 0.147671819
v -0.00062695099 1.18420172 0.152795866
v -0.0439359657 1.31875658 0.134137034
v -0.0838590041 1.22831953 0.12770173
v 0.0216338299 1.1348629 0.16166994
v 0.0167812463 1.07144189 0.171137258
v 0.0189924482 1.01778436 0.17937842
v 0.0432184711 1.24690318 0.134302959
v 0.0288587529 1.19365644 0.148039505
v 0.0436004251 1.31524861 0.127035022
v 0.0578732491 1.1805743 0.128940523
v 0.0719957948 1.11973429 0.121277019
v 0.0522234552 1.06956398 0.1413223
v 0.0461417735 1.01639628 0.154493824
v 0.0327044614 0.959809721 0.181142837
v 0.0546966866 0.916238844 0.155135319
v 0.0787546039 1.43689871 0.0681445599
v 0.0515375771 1.3808459 0.107245117
v 0.0252083577 1.43559074 0.0770394132
v 0.0647065863 1.50408792 -0.0226886254
v 0.0567249656 1.51222217 -0.0695332289
v -0.0237275846 1.43780375 0.078183189
v 0.0014250169 1.39570916 0.106058426
v -0.0422975607 1.38617361 0.114646763
v -0.0539740063 1.47578061 0.0423949845
v -0.0248959642 1.46992993 0.0504097827
v 0.00938130543 1.47083795 0.0461590774
v 0.18638432 1.25742555 -0.0642993301
v 0.194444224 1.35611105 -0.125734121
v 0.180723667 1.22547984 -0.0903526694
v 0.176846161 1.16765344 -0.0810979828
v 0.163844392 1.19426656 -0.114651777
v 0.152119011 1.13438618 -0.112209916
v 0.144180328 1.07440591 -0.107686274
v 0.140224487 1.02395761 -0.106033459
v 0.161238045 0.952362716 -0.0688922554
v 0.139259234 0.964142978 -0.106279261
v 0.155009806 0.90979439 -0.0756917
v 0.132114694 0.908710122 -0.108615302
v 0.127634317 1.26599836 -0.150938794
v 0.135591865 1.21964741 -0.141556621
v 0.159150541 1.32117295 -0.130788445
v 0.079524301 1.26706684 -0.172619358
v 0.0955304801 1.21446669 -0.164419994
v 0.111065909 1.32327569 -0.162589759
v 0.106416725 1.10762262 -0.14696981
v 0.115808621 1.0506525 -0.138707563
v 0.106589213 1.00674021 -0.148080021
v 0.104501098 0.955782115 -0.146346003
v 0.120026596 1.1712023 -0.14187108
v 0.0783586577 1.16461205 -0.173181728
v 0.0266150758 1.16614962 -0.188419163
v 0.058144968 1.11225498 -0.185809478
v 0.0570826828 0.992400646 -0.184498236
v 0.069776088 0.939937592 -0.172663033
v 0.0185908377 0.944255888 -0.193064913
v -0.137438715 0.897343338 -0.0816399381
v -0.109492131 0.898853004 -0.114315636
v -0.137471616 0.955476642 -0.103902169
v -0.155696362 0.897670329 -0.0428888686
v -0.0760340616 0.901506066 -0.14148578
v -0.088322252 0.95005846 -0.140544772
v -0.162212327 1.00055134 -0.0714603812
v -0.105740085 0.993260324 -0.135621786
v -0.144387856 1.02383304 -0.113979898
v -0.0967121124 1.05306065 -0.147274718
v -0.152379274 1.08651531 -0.120567642
v -0.170996368 1.06369102 -0.070649974
v -0.176925972 1.10240853 -0.0275295936
v -0.147277355 1.14131141 -0.131260663
v -0.178512394 1.13321698 -0.0862464234
v -0.184454516 1.16321218 -0.0298114121
v -0.188936889 1.20323086 -0.0711782351
v -0.137676388 1.18541539 -0.141078591
v -0.1713662 1.19088125 -0.111461416
v -0.106126279 1.12789369 -0.151052803
v -0.108434454 1.22992527 -0.154892609
v -0.187019914 1.25274932 -0.0989885628
v -0.0971569568 1.27795911 -0.15958555
v -0.16713953 1.30816019 -0.127331913
v -0.130617008 1.32118559 -0.150538504
v -0.194628239 1.30954635 -0.0907235146
v -0.224917352 1.4422884 -0.0499776155
v -0.184435055 1.44511211 -0.0882971287
v -0.260509104 1.39465022 -0.0633274391
v -0.214096382 1.4129262 -0.0991627574
v -0.159560531 1.41787052 -0.123803824
v -0.244572401 1.36066854 -0.0945849791
v -0.268119216 1.3046186 -0.0856552497
v -0.241161376 1.26698184 -0.0795789734
v -0.157973111 1.36073875 -0.13683863
v -0.10499163 1.38344288 -0.155001923
v 0.190228283 1.29036021 -0.0614527501
v 0.190750852 1.2972337 -0.017452158
v 0.171569571 1.42462826 -0.138487279
v 0.1066764 1.4320029 -0.150668472
v 0.0809914693 1.37946093 -0.173473373
v 0.200473458 1.44408751 -0.11653924
v 0.155392513 1.46301615 -0.116229728
v 0.0976241827 1.4699173 -0.121837154
v 0.059206482 1.43890071 -0.155160531
v -0.0299549941 1.04982543 -0.173437551
v -0.05517691 1.09832084 -0.164422169
v -0.0414215699 0.90459156 -0.167142019
v -0.036842797 0.94283545 -0.170554101
v -0.0210426915 1.21969104 -0.174447119
v 0.0399822369 1.21918011 -0.186425224
v 0.0281568319 1.27552712 -0.184173167
v -0.0389391929 1.29419053 -0.169446588
v -0.0407555886 1.15291989 -0.169457376
v 0.0293172263 1.0514977 -0.191840515
v 0.000363476574 1.10783803 -0.183904305
v 0.00258012163 0.995490193 -0.188192397
v -0.00418017665 0.906632245 -0.188342273
v 0.0374750495 0.907259822 -0.187629864
v 0.0734320506 0.907615662 -0.166073188
v -0.0401249975 1.36216283 -0.166895241
v -0.0833063647 1.33114696 -0.162473693
v -0.0981822014 1.44008243 -0.137286648
v 0.0179986376 1.33804297 -0.178963572
v 0.0146211684 1.40066719 -0.168876871
v -0.0448444001 1.41749954 -0.156344414
v -0.0508222356 1.47481823 -0.130869567
v 0.0542535745 1.48178089 -0.11431279
v 0.00700976606 1.46281028 -0.144003823
v -0.192652196 1.22972369 0.0295148809
v -0.224351615 1.23044348 0.075360477
v -0.20433332 1.28288066 0.0593211614
v -0.18204549 1.23076355 -0.023739418
v -0.220666051 1.17886114 0.0404147953
v -0.248403013 1.18537819 0.0865799859
v -0.245644584 1.15519047 -0.00816706382
v -0.260922402 1.14084303 0.0433724672
v -0.268651694 1.15107846 0.0845195651
v -0.265066534 1.13409531 0.00169723469
v -0.236118987 1.3400197 0.0600886047
v -0.251443833 1.28006053 0.0757615194
v -0.294567168 1.16646862 0.112003908
v -0.273145765 1.22161222 0.0936897993
v -0.275250614 1.35437536 0.0246187393
v -0.303139538 1.30561483 0.0144198472
v -0.334325314 1.22425115 0.0344699286
v -0.344034195 1.20851862 -0.00123173697
v -0.307056457 1.28964245 -0.048313573
v -0.310221225 1.21757817 0.0730827525
v -0.329036385 1.1725179 0.0872990489
v -0.35407722 1.17244112 0.051926259
v -0.360501707 1.16545677 0.0106569175
v -0.346397072 1.15322363 -0.027365189
v -0.288164854 1.24681485 -0.076793693
v -0.262731344 1.21378458 -0.0686371326
v -0.305992961 1.18759191 -0.0642958134
v -0.273782164 1.16491127 -0.0536324158
v -0.317276895 1.1389941 -0.0525130071
v -0.282384217 1.13130867 -0.0360203944
v 0.230866566 1.27575874 -0.0220647939
v 0.222592577 1.27746308 -0.0719126835
v 0.233648449 1.31301427 -0.125394568
v 0.26244992 1.2534343 -0.0724033564
v 0.270360172 1.25634313 -0.024583865
v 0.303707808 1.23967087 -0.0333124697
v 0.2961905 1.2351191 -0.072690405
v 0.301170319 1.24116707 -0.113288619
v 0.259083658 1.34623742 -0.139317006
v 0.281097651 1.28766072 -0.135448188
v 0.319995731 1.3257103 -0.122425392
v 0.282745689 1.38045096 -0.107456714
v 0.324276865 1.26484871 -0.137616336
v 0.35258013 1.29190683 -0.122362152
v 0.327758193 1.34727633 -0.0804760978
v 0.368927389 1.30660617 -0.0857950747
v 0.287364632 1.39125443 -0.0492790006
v 0.370337099 1.30679166 -0.0434236266
v 0.320097893 1.34911275 -0.0190175045
v 0.274556637 1.38810182 -0.00570160523
v 0.360366046 1.29558992 -0.00368951238
v 0.263569564 1.36305368 0.0211608708
v 0.312228441 1.30919468 0.0231409464
v 0.295672774 1.27633655 0.0149810351
v 0.253738046 1.30933809 0.0182501748
v 0.192573443 1.3451072 0.0201806445
v 0.341968983 1.27491486 0.0262358319
v 0.319380611 1.25222361 0.00211118441
v -0.00443704054 1.50848615 -0.109815575
v -0.0466011278 1.50752175 -0.107211165
v 0.0277024563 1.51102042 -0.100091644
v 0.0329690091 0.917943895 0.188636258
v 0.104482539 0.908065736 -0.138621852
v 0.0345128626 1.47785199 0.0332360975
v -0.0853390694 1.50855803 -0.0857401937
v 0.174243107 1.31010461 0.0340424627
v 0.196876436 1.31283426 -0.0890164748
v -0.141234234 1.43549776 0.0546697043
v 0.133180767 1.37493551 -0.136417434
v 0.1656847 1.25261927 -0.122728899
v -0.221383452 1.2353729 -0.0460262597
v -0.182379931 1.3634156 -0.102542743
v -0.186469316 1.26436424 -0.0538034216
v -0.0834039301 1.19083416 -0.1582046
v 0.173431709 1.28281438 -0.0919349268
v 0.196543977 1.38607931 0.0194426812
v -0.114224494 1.39180613 0.0873860493
v -0.0712678954 1.2418977 -0.163976967
v -0.323789448 1.22318697 -0.0429872647
v 0.000449356623 1.34725654 0.123037025
v -0.0593689643 0.998910487 -0.160691217
v -0.292098403 1.27577007 0.0565617681
v -0.281238616 1.31214643 0.0385250337
v -0.141534522 1.25161839 -0.142944098
v 0.0794367045 1.2822721 0.118586175
v -0.322856665 1.257321 0.000932923751
v 0.00168511306 1.28633285 0.139758661
v -0.237500548 1.40578616 0.0309916139
v -0.279401273 1.33991206 -0.0689335093
v 0.0601333156 1.31960952 -0.178930253
v 0.226678029 1.40165567 -0.132639214
v -0.287982851 1.3463999 -0.0291889571
v -0.216661379 1.19161952 -0.015488252
v 0.0793132931 1.05326831 -0.172629133
v 0.25136438 1.28218222 -0.101110384
v -0.0807560906 1.29552066 0.130641431
v -0.258086473 1.39858043 -0.0158064924
g 
f 87 298 86
f 1 3 2
f 3 1 16
f 1 4 16
f 4 1 5
f 2 7 6
f 7 2 3
f 6 9 8
f 9 6 7
f 10 9 11
f 9 10 8
f 11 12 10
f 12 11 13
f 11 14 21
f 14 11 9
f 11 15 13
f 15 11 21
f 3 17 7
f 17 3 16
f 17 19 22
f 19 17 16
f 19 18 20
f 18 19 16
f 22 21 14
f 15 21 23
f 22 25 24
f 22 14 17
f 25 19 26
f 19 25 22
f 22 27 21
f 27 22 24
f 26 20 28
f 20 26 19
f 29 25 26
f 26 30 29
f 30 26 28
f 24 31 27
f 31 24 32
f 24 29 32
f 29 24 25
f 35 79 36
f 38 37 34
f 33 39 36
f 39 33 37
f 237 180 38
f 40 41 139
f 41 40 45
f 42 40 139
f 40 43 45
f 43 40 44
f 44 40 42
f 43 46 45
f 41 45 47
f 45 48 47
f 48 45 49
f 62 49 46
f 50 52 51
f 52 50 53
f 53 50 54
f 44 55 56
f 57 55 58
f 55 57 56
f 55 60 59
f 60 55 44
f 55 59 58
f 60 44 42
f 61 43 65
f 43 61 46
f 62 46 61
f 51 64 63
f 64 51 52
f 57 65 56
f 57 120 65
f 56 43 44
f 43 56 65
f 61 67 62
f 67 61 66
f 66 68 67
f 66 65 120
f 65 66 61
f 69 68 70
f 68 69 67
f 67 64 62
f 64 67 69
f 69 63 64
f 63 69 71
f 71 70 72
f 70 71 69
f 75 73 321
f 76 321 73
f 73 83 76
f 83 73 77
f 85 77 301
f 78 301 310
f 74 80 79
f 310 81 78
f 81 310 35
f 83 82 84
f 82 77 85
f 77 82 83
f 82 86 84
f 86 82 87
f 88 82 85
f 82 88 87
f 89 91 90
f 89 92 128
f 92 89 93
f 89 94 91
f 94 89 128
f 89 90 93
f 95 90 91
f 96 90 95
f 91 97 95
f 97 91 98
f 99 95 100
f 100 95 97
f 96 99 101
f 99 96 95
f 104 103 102
f 98 94 125
f 94 98 91
f 104 98 125
f 105 34 33
f 105 33 79
f 105 237 34
f 80 105 79
f 35 329 81
f 329 35 36
f 106 58 59
f 318 116 58
f 106 103 107
f 103 106 59
f 126 107 104
f 102 103 299
f 102 97 98
f 97 102 309
f 60 299 59
f 108 110 109
f 110 108 30
f 29 30 112
f 28 110 30
f 110 28 113
f 28 114 113
f 114 28 20
f 20 115 114
f 115 20 18
f 18 4 115
f 4 18 16
f 109 117 116
f 117 109 110
f 118 320 116
f 110 113 117
f 113 119 117
f 119 113 120
f 113 121 120
f 121 113 114
f 115 123 122
f 114 122 121
f 122 114 115
f 115 4 123
f 119 116 117
f 119 58 116
f 58 119 57
f 119 120 57
f 121 68 66
f 68 121 122
f 120 121 66
f 122 70 68
f 70 122 123
f 70 124 72
f 124 70 123
f 125 94 297
f 126 125 127
f 104 125 126
f 129 128 92
f 131 130 132
f 78 81 132
f 133 88 85
f 134 133 130
f 131 126 127
f 130 135 134
f 135 130 127
f 42 136 60
f 137 300 150
f 303 150 308
f 138 136 42
f 136 202 60
f 202 136 201
f 139 138 42
f 139 140 138
f 140 139 141
f 141 139 41
f 41 142 141
f 142 41 47
f 47 143 142
f 143 47 48
f 48 53 144
f 48 145 143
f 145 48 144
f 144 54 146
f 54 144 53
f 145 146 147
f 146 145 144
f 149 303 140
f 303 149 148
f 148 152 151
f 152 148 149
f 148 153 150
f 153 148 151
f 142 154 141
f 154 142 155
f 156 155 143
f 156 145 157
f 145 156 143
f 158 140 141
f 140 158 149
f 152 158 159
f 158 152 149
f 151 215 216
f 215 151 152
f 159 161 160
f 159 154 161
f 154 159 158
f 159 215 152
f 215 159 160
f 158 141 154
f 156 327 155
f 327 156 162
f 162 219 327
f 162 157 163
f 157 162 156
f 162 163 164
f 165 167 166
f 165 13 167
f 13 165 168
f 166 170 169
f 170 166 167
f 13 168 12
f 171 167 13
f 173 167 171
f 167 172 170
f 172 167 173
f 172 173 174
f 173 176 175
f 176 173 171
f 23 27 177
f 27 23 21
f 23 171 15
f 23 176 171
f 176 23 177
f 178 175 179
f 179 175 176
f 177 31 180
f 31 177 27
f 177 179 176
f 179 177 180
f 180 181 179
f 180 31 38
f 178 183 182
f 183 178 179
f 178 184 175
f 182 307 184
f 317 185 182
f 183 181 186
f 183 179 181
f 185 187 311
f 188 189 317
f 237 181 180
f 181 306 186
f 306 190 186
f 83 191 76
f 191 192 194
f 192 191 83
f 83 84 192
f 76 191 330
f 193 191 194
f 194 192 195
f 195 192 84
f 196 322 193
f 322 196 197
f 198 197 190
f 194 196 193
f 190 196 305
f 325 193 322
f 190 188 186
f 188 305 199
f 305 195 199
f 195 305 194
f 200 189 199
f 302 203 137
f 302 204 203
f 204 302 205
f 324 137 203
f 206 203 207
f 206 324 203
f 96 207 90
f 207 96 206
f 206 101 324
f 101 206 96
f 207 204 208
f 204 207 203
f 207 93 90
f 93 207 208
f 205 209 204
f 323 205 153
f 174 211 210
f 211 174 184
f 174 175 184
f 175 174 173
f 169 213 212
f 213 169 170
f 214 216 215
f 216 214 217
f 311 187 217
f 187 185 317
f 307 182 185
f 184 307 218
f 214 160 218
f 160 214 215
f 219 210 220
f 211 184 218
f 160 220 218
f 210 221 314
f 221 210 219
f 222 213 164
f 213 222 212
f 160 161 220
f 219 162 221
f 161 219 220
f 164 221 162
f 221 213 314
f 213 221 164
f 164 223 222
f 219 161 327
f 223 163 224
f 163 223 164
f 226 225 217
f 187 189 226
f 189 187 317
f 200 226 189
f 195 200 199
f 227 200 195
f 84 227 195
f 227 84 86
f 217 228 216
f 228 217 225
f 225 229 228
f 229 225 230
f 225 200 230
f 200 225 226
f 227 230 200
f 230 227 231
f 231 227 86
f 323 216 228
f 228 205 323
f 205 228 229
f 209 208 204
f 208 209 232
f 209 229 233
f 229 209 205
f 209 233 232
f 234 235 238
f 235 234 236
f 105 80 236
f 234 237 105
f 234 326 237
f 326 234 238
f 239 238 235
f 238 240 326
f 241 239 242
f 239 241 238
f 238 243 240
f 243 238 241
f 80 75 244
f 75 80 74
f 236 245 235
f 245 236 244
f 239 246 242
f 246 239 247
f 245 247 235
f 245 316 315
f 316 245 244
f 321 330 248
f 249 316 248
f 319 312 251
f 252 319 249
f 255 254 253
f 315 316 249
f 256 250 251
f 250 256 255
f 325 249 248
f 251 257 256
f 257 251 312
f 198 259 258
f 197 252 322
f 252 197 258
f 258 260 312
f 259 261 260
f 257 260 262
f 260 257 312
f 261 262 260
f 262 261 263
f 263 240 243
f 240 263 261
f 198 190 306
f 261 326 240
f 198 304 259
f 201 264 202
f 264 201 265
f 265 266 328
f 268 270 269
f 270 268 267
f 267 264 265
f 264 267 268
f 267 271 270
f 271 267 273
f 328 266 273
f 266 265 300
f 137 272 266
f 272 137 324
f 272 274 273
f 274 272 275
f 274 276 273
f 276 274 277
f 274 275 278
f 274 279 277
f 279 274 278
f 271 273 276
f 101 275 324
f 101 280 275
f 280 101 99
f 278 281 279
f 281 278 282
f 278 280 282
f 280 278 275
f 99 283 280
f 283 99 100
f 281 282 284
f 287 286 288
f 285 289 288
f 289 285 309
f 285 282 283
f 282 285 286
f 100 285 283
f 286 291 290
f 291 286 287
f 286 284 282
f 284 286 290
f 202 264 288
f 100 97 309
f 288 268 287
f 268 288 264
f 287 269 291
f 269 287 268
f 292 231 293
f 231 292 233
f 233 294 232
f 294 233 292
f 129 232 294
f 232 129 92
f 111 81 329
f 81 111 132
f 313 131 132
f 39 112 36
f 131 313 126
f 7 14 9
f 14 7 17
f 32 37 38
f 39 29 112
f 29 37 32
f 37 29 39
f 202 289 299
f 49 53 48
f 49 52 53
f 52 49 62
f 62 64 52
f 330 325 248
f 325 330 193
f 5 123 4
f 123 5 295
f 123 295 124
f 157 147 296
f 147 157 145
f 296 163 157
f 163 296 224
f 13 15 171
f 208 92 93
f 92 208 232
f 213 170 314
f 230 233 229
f 233 230 231
f 247 315 253
f 315 247 245
f 247 254 246
f 254 247 253
f 283 282 280
f 297 127 125
f 297 135 127
f 298 231 86
f 298 293 231
f 289 102 299
f 201 136 300
f 150 300 308
f 77 73 301
f 301 73 75
f 205 302 153
f 136 138 308
f 140 303 138
f 237 326 304
f 244 236 80
f 148 150 303
f 305 188 190
f 198 306 304
f 258 197 198
f 306 181 237
f 217 187 226
f 307 311 214
f 218 307 214
f 299 103 59
f 300 136 308
f 303 308 138
f 236 234 105
f 102 98 104
f 302 150 153
f 137 150 302
f 202 299 60
f 188 317 186
f 36 79 33
f 102 289 309
f 190 197 196
f 36 112 329
f 78 133 85
f 34 37 33
f 320 118 313
f 126 313 118
f 249 325 252
f 235 247 239
f 107 126 118
f 199 189 188
f 35 310 74
f 217 214 311
f 185 311 307
f 103 104 107
f 196 194 305
f 260 258 259
f 312 319 252
f 306 237 304
f 112 30 108
f 301 78 85
f 132 111 313
f 320 313 111
f 172 174 314
f 210 314 174
f 218 220 211
f 315 319 250
f 253 315 250
f 288 286 285
f 316 244 248
f 182 183 317
f 186 317 183
f 58 106 318
f 107 318 106
f 38 31 32
f 301 74 310
f 266 300 137
f 251 250 319
f 249 319 315
f 132 130 78
f 116 320 109
f 266 272 273
f 288 289 202
f 300 265 201
f 127 130 131
f 111 108 320
f 109 320 108
f 248 244 321
f 75 321 244
f 38 34 237
f 118 318 107
f 301 75 74
f 184 178 182
f 153 151 323
f 216 323 151
f 309 285 100
f 35 74 79
f 46 49 45
f 275 272 324
f 314 170 172
f 143 155 142
f 322 252 325
f 261 259 326
f 304 326 259
f 161 154 327
f 155 327 154
f 273 267 328
f 265 328 267
f 318 118 116
f 112 108 329
f 111 329 108
f 94 128 297
f 330 321 76
f 193 330 191
f 312 252 258
f 220 210 211
f 130 133 78
f 253 250 255
