# Blender 5.0.1
# www.blender.org
mtllib rotplane2.mtl
o Plane
v 0.000000 0.500000 0.500000
v -0.000000 -0.500000 0.500000
v 0.000000 0.500000 -0.500000
v -0.000000 -0.500000 -0.500000
v 0.000000 0.000000 0.500000
v 0.000000 0.000000 -0.500000
v 0.000000 0.500000 0.000000
v -0.000000 -0.500000 0.000000
v 0.000000 0.000000 0.000000
v 0.000000 0.500000 0.250000
v -0.000000 -0.500000 0.250000
v 0.000000 0.000000 0.250000
v -0.000000 -0.500000 -0.250000
v 0.000000 0.000000 -0.250000
v 0.000000 0.500000 -0.250000
v 0.000000 0.250000 -0.500000
v 0.000000 0.250000 0.500000
v 0.000000 0.250000 0.000000
v 0.000000 0.250000 0.250000
v 0.000000 0.250000 -0.250000
v -0.000000 -0.250000 0.500000
v -0.000000 -0.250000 -0.500000
v -0.000000 -0.250000 0.000000
v -0.000000 -0.250000 0.250000
v -0.000000 -0.250000 -0.250000
vn 1.0000 -0.0000 -0.0000
vt 0.750000 0.750000
vt 1.000000 0.750000
vt 1.000000 1.000000
vt 0.750000 1.000000
vt 0.250000 0.750000
vt 0.500000 0.750000
vt 0.500000 1.000000
vt 0.250000 1.000000
vt 0.250000 0.250000
vt 0.500000 0.250000
vt 0.500000 0.500000
vt 0.250000 0.500000
vt 0.750000 0.250000
vt 1.000000 0.250000
vt 1.000000 0.500000
vt 0.750000 0.500000
vt 0.750000 0.000000
vt 1.000000 0.000000
vt 0.250000 0.000000
vt 0.500000 0.000000
vt 0.000000 0.500000
vt 0.000000 0.750000
vt 0.000000 0.000000
vt 0.000000 0.250000
vt 0.000000 1.000000
s 0
f 25/1/1 13/2/1 4/3/1 22/4/1
f 20/5/1 14/6/1 6/7/1 16/8/1
f 19/9/1 12/10/1 9/11/1 18/12/1
f 24/13/1 11/14/1 8/15/1 23/16/1
f 21/17/1 2/18/1 11/14/1 24/13/1
f 17/19/1 5/20/1 12/10/1 19/9/1
f 18/12/1 9/11/1 14/6/1 20/5/1
f 23/16/1 8/15/1 13/2/1 25/1/1
f 7/21/1 18/12/1 20/5/1 15/22/1
f 1/23/1 17/19/1 19/9/1 10/24/1
f 10/24/1 19/9/1 18/12/1 7/21/1
f 15/22/1 20/5/1 16/8/1 3/25/1
f 9/11/1 23/16/1 25/1/1 14/6/1
f 5/20/1 21/17/1 24/13/1 12/10/1
f 12/10/1 24/13/1 23/16/1 9/11/1
f 14/6/1 25/1/1 22/4/1 6/7/1
